<?xml version="1.0" standalone="no"?>
<!DOCTYPE svg PUBLIC "-//W3C//DTD SVG 20010904//EN"
 "http://www.w3.org/TR/2001/REC-SVG-20010904/DTD/svg10.dtd">
<svg version="1.0" xmlns="http://www.w3.org/2000/svg"
 width="2588.000000pt" height="2588.000000pt" viewBox="0 0 2588.000000 2588.000000"
 preserveAspectRatio="xMidYMid meet">
<metadata>
Created by potrace 1.14, written by Peter Selinger 2001-2017
</metadata>
<g transform="translate(0.000000,2588.000000) scale(0.100000,-0.100000)"
fill="#000000" stroke="none">
<path d="M3527 25390 c-273 -138 -485 -384 -582 -672 -49 -147 -63 -240 -59
-393 5 -248 66 -442 202 -650 64 -97 220 -250 322 -317 105 -68 258 -140 321
-151 13 -3 42 -10 64 -16 95 -25 327 -35 440 -18 378 58 709 300 880 644 34
70 82 208 111 319 2 9 667 12 2538 12 l2536 0 0 -1722 0 -1721 -117 -44 c-578
-215 -1248 -567 -1758 -926 -98 -68 -329 -238 -335 -245 -3 -3 -23 -19 -45
-35 -96 -70 -364 -297 -500 -423 -699 -649 -1226 -1329 -1690 -2182 -54 -98
-225 -445 -225 -454 0 -3 -17 -42 -38 -88 -38 -83 -135 -321 -168 -411 l-17
-47 -1701 2 -1701 3 0 2534 0 2535 35 8 c237 57 416 151 576 301 191 180 300
383 359 672 17 82 13 278 -9 405 -50 291 -243 581 -503 758 -133 90 -312 160
-478 187 -106 17 -308 12 -405 -10 -14 -4 -38 -9 -54 -11 -44 -8 -183 -61
-251 -96 -326 -165 -560 -480 -629 -848 -16 -84 -19 -295 -6 -356 5 -21 11
-59 15 -82 17 -121 116 -346 200 -457 149 -197 377 -364 581 -425 67 -20 108
-31 139 -36 17 -3 32 -8 35 -11 3 -2 6 -1198 6 -2656 2 -2398 3 -2656 18
-2689 19 -45 77 -93 125 -105 20 -5 803 -9 1774 -8 1359 0 1737 -3 1737 -12 0
-7 -6 -32 -14 -55 -32 -102 -58 -193 -95 -338 -40 -154 -80 -327 -96 -410 -2
-14 -14 -74 -25 -135 -12 -60 -23 -119 -25 -130 -5 -29 -15 -95 -21 -135 -2
-19 -6 -46 -9 -60 -8 -41 -13 -82 -19 -140 -4 -30 -8 -64 -10 -75 -2 -11 -7
-56 -11 -100 -3 -44 -8 -93 -11 -110 -4 -30 -7 -77 -21 -300 -15 -231 -8 -900
11 -1065 3 -19 7 -72 11 -116 3 -45 8 -93 10 -105 2 -13 6 -51 9 -84 8 -71 13
-111 35 -275 7 -47 14 -96 16 -110 3 -14 12 -65 21 -115 17 -99 49 -259 63
-317 5 -21 7 -38 5 -38 -3 0 0 -8 5 -17 5 -10 12 -34 15 -54 7 -48 67 -278
112 -429 20 -69 38 -134 41 -145 4 -20 0 -20 -1734 -19 -1367 0 -1747 -2
-1782 -12 -56 -16 -117 -80 -127 -132 -4 -20 -8 -1225 -8 -2676 l-1 -2639 -91
-23 c-153 -39 -248 -82 -385 -175 -235 -161 -406 -406 -478 -684 -33 -127 -36
-380 -8 -515 79 -370 315 -671 648 -829 94 -44 222 -87 289 -97 14 -2 51 -8
83 -12 83 -13 252 -6 355 13 564 108 977 617 957 1180 -3 61 -7 127 -10 147
-66 463 -422 857 -875 971 l-95 24 -1 2536 -2 2537 1703 0 1703 0 27 -73 c247
-657 635 -1365 1068 -1947 55 -74 103 -137 106 -140 3 -3 28 -34 56 -70 87
-114 248 -304 409 -480 155 -170 519 -521 681 -656 39 -32 72 -61 75 -64 30
-36 431 -340 645 -488 413 -286 1024 -620 1435 -784 41 -16 89 -36 105 -43 17
-7 87 -35 157 -62 l128 -48 -3 -1720 -2 -1720 -2537 -2 -2537 -1 -6 41 c-12
69 -63 217 -101 292 -62 121 -125 207 -223 306 -240 240 -515 351 -856 344
-196 -4 -331 -37 -509 -126 -205 -102 -395 -288 -509 -499 -133 -247 -169
-558 -96 -845 78 -308 304 -596 584 -744 81 -43 224 -95 320 -117 84 -19 318
-26 405 -12 402 64 737 317 905 683 27 60 57 149 78 235 l14 55 2646 1 c1899
1 2655 5 2679 13 47 16 94 59 115 106 17 39 18 126 18 1812 l-1 1770 66 -19
c79 -23 239 -68 260 -72 8 -2 35 -9 60 -16 25 -7 53 -14 63 -16 10 -2 26 -5
35 -8 9 -3 28 -7 42 -10 14 -2 63 -13 110 -24 86 -21 271 -58 325 -66 17 -2
71 -11 120 -20 50 -8 110 -18 135 -21 25 -3 56 -8 70 -10 14 -2 50 -7 80 -10
64 -7 121 -14 170 -20 19 -3 67 -7 105 -11 39 -3 88 -7 110 -10 184 -18 832
-25 1065 -11 187 12 240 16 295 21 28 3 77 8 110 11 33 3 74 8 90 10 17 2 53
7 80 10 48 6 166 21 230 31 17 2 41 6 55 9 14 3 63 12 110 20 47 8 96 17 110
20 14 3 39 7 55 10 17 3 44 8 60 12 17 3 37 7 45 8 26 3 322 74 400 96 41 11
82 22 91 24 32 6 264 76 302 90 20 8 38 11 38 7 1 -4 3 -810 4 -1792 1 -982 5
-1796 10 -1810 13 -42 56 -90 99 -112 l40 -20 2655 -2 2655 -1 8 -30 c4 -16 9
-41 12 -55 15 -94 95 -271 175 -387 174 -254 424 -421 733 -489 82 -18 307
-26 383 -14 28 5 68 12 90 15 65 11 214 65 300 107 208 105 406 303 512 513
38 75 80 179 87 217 2 13 9 41 14 63 45 169 33 409 -29 610 -82 264 -264 499
-504 650 -86 53 -227 112 -341 141 -94 24 -130 28 -259 28 -147 1 -235 -7
-282 -25 -13 -5 -23 -6 -23 -4 0 10 -180 -60 -255 -98 -300 -156 -530 -451
-604 -777 l-17 -75 -2537 -2 -2537 -2 3 1747 2 1746 105 42 c697 277 1366 658
1970 1123 188 144 298 236 485 401 187 166 523 504 665 670 12 14 31 36 43 50
25 29 243 293 297 360 65 81 195 262 298 415 56 83 105 155 109 160 12 15 128
206 201 330 191 327 383 722 532 1098 l62 157 1763 0 1763 0 0 -2536 c1 -1934
-2 -2536 -11 -2538 -7 -2 -55 -15 -108 -29 -314 -85 -589 -306 -735 -592 -62
-121 -87 -193 -120 -340 -11 -51 -13 -286 -3 -360 12 -89 52 -232 87 -310 26
-58 100 -195 111 -205 4 -3 26 -31 50 -62 172 -227 462 -391 766 -433 87 -12
269 -12 330 0 17 3 55 10 85 16 205 41 454 186 609 355 130 142 250 366 276
516 3 17 7 34 9 37 12 19 21 133 20 251 -1 188 -31 326 -108 492 -148 318
-456 569 -790 644 -39 9 -73 18 -76 21 -3 3 -5 1196 -6 2651 l-1 2647 -20 46
c-23 52 -71 93 -123 106 -20 5 -802 9 -1832 8 -1323 0 -1798 3 -1798 11 0 6
13 56 29 110 29 98 89 318 96 352 2 9 12 53 23 97 18 72 57 251 68 315 3 14 9
48 14 75 15 75 47 273 54 330 4 28 9 64 11 80 13 89 25 197 40 365 20 223 29
442 29 700 0 215 -9 498 -18 591 -3 24 -8 82 -11 129 -3 47 -8 99 -10 115 -2
17 -7 57 -10 90 -3 33 -8 74 -10 90 -11 81 -27 193 -32 220 -3 17 -6 44 -8 60
-2 17 -11 71 -20 120 -9 50 -19 104 -22 120 -27 161 -119 542 -187 774 l-42
146 1800 0 c1040 -1 1816 3 1836 8 48 13 98 54 122 101 l21 41 1 2654 1 2654
43 12 c23 7 42 11 42 9 0 -9 209 72 269 104 566 301 788 988 505 1562 -160
325 -457 554 -824 635 -122 27 -342 27 -460 0 -14 -3 -36 -8 -50 -11 -14 -3
-59 -17 -100 -31 -378 -130 -671 -449 -769 -838 -34 -135 -35 -378 -3 -528 87
-402 387 -736 777 -865 50 -17 107 -33 129 -36 21 -4 42 -9 46 -11 5 -3 9
-1146 8 -2540 l0 -2535 -1763 0 c-1401 0 -1764 3 -1768 13 -3 6 -30 73 -60
147 -158 388 -281 647 -457 965 -272 491 -650 1028 -1000 1420 -267 298 -475
506 -790 788 -212 190 -649 517 -937 703 -433 279 -1017 579 -1443 741 l-75
29 -3 1746 -2 1746 2537 -2 2537 -1 9 -40 c88 -405 361 -724 747 -873 231 -89
554 -91 795 -5 347 125 626 411 736 755 56 178 69 386 33 575 -41 224 -151
436 -307 595 -121 123 -186 172 -314 237 l-83 41 -454 0 -454 0 -63 -31 c-62
-31 -169 -95 -179 -108 -3 -3 -27 -24 -54 -45 -172 -139 -318 -361 -379 -576
-15 -52 -28 -104 -29 -115 -3 -20 -11 -20 -2635 -21 -1448 -1 -2654 -5 -2679
-9 -60 -9 -129 -75 -141 -136 -4 -23 -8 -841 -8 -1818 l1 -1777 -81 24 c-259
78 -443 126 -715 187 -34 8 -279 55 -335 65 -33 5 -71 12 -85 15 -31 6 -46 8
-245 34 -88 11 -187 23 -220 26 -33 3 -80 8 -105 10 -25 3 -79 7 -120 10 -41
3 -118 8 -170 11 -215 14 -817 8 -1035 -11 -22 -2 -71 -6 -110 -9 -93 -8 -163
-15 -260 -27 -136 -17 -158 -20 -215 -29 -30 -5 -72 -11 -92 -14 -54 -8 -107
-17 -132 -22 -11 -2 -48 -9 -81 -14 -33 -6 -105 -20 -160 -32 -55 -11 -110
-22 -123 -24 -52 -10 -453 -114 -524 -137 -43 -14 -79 -22 -79 -18 -1 3 -3
800 -3 1772 l-2 1765 -24 49 c-18 36 -38 58 -72 79 l-47 28 -2660 0 -2660 0
-7 42 c-10 65 -59 207 -97 284 -115 232 -328 444 -549 547 l-53 25 -455 0
-455 0 -78 -40z m653 -265 c147 -18 311 -100 424 -210 84 -83 106 -110 151
-190 68 -123 104 -276 99 -420 -4 -93 -5 -99 -38 -208 -72 -232 -270 -432
-506 -511 -350 -116 -738 27 -927 342 -206 344 -132 775 176 1026 178 145 385
202 621 171z m18135 1 c298 -48 541 -253 635 -534 30 -92 35 -132 34 -277 -1
-118 -4 -138 -32 -222 -114 -332 -407 -544 -757 -547 -314 -2 -615 201 -732
495 -43 106 -54 162 -58 292 -6 200 66 387 207 542 125 137 308 233 474 251
32 3 60 7 62 8 4 5 125 -1 167 -8z m-20415 -2251 c145 -14 295 -78 410 -175
76 -64 74 -62 122 -122 81 -100 144 -250 163 -388 56 -395 -208 -780 -600
-874 -146 -35 -326 -25 -460 25 -160 60 -333 205 -410 343 -168 302 -144 639
65 901 120 151 325 267 509 289 30 4 56 8 58 9 3 4 47 1 143 -8z m22670 -4
c200 -28 369 -127 503 -294 89 -110 141 -237 161 -392 16 -117 12 -180 -14
-289 -36 -145 -106 -265 -217 -373 -80 -78 -134 -116 -226 -158 -232 -105
-504 -92 -723 34 -389 224 -515 728 -278 1109 108 173 304 313 491 352 136 28
175 30 303 11z m-11694 -3528 l-1 -1448 -1352 -2 c-744 -1 -1353 2 -1353 7 0
49 316 748 418 925 10 17 37 66 62 110 418 756 928 1311 1485 1618 140 77 374
172 475 192 131 27 214 42 246 44 l20 1 0 -1447z m509 1431 c332 -54 691 -227
1025 -494 122 -98 372 -345 481 -475 354 -421 668 -948 936 -1565 29 -69 58
-134 63 -145 14 -32 80 -195 80 -199 0 -2 -609 -4 -1354 -4 l-1355 0 1 1450 0
1450 46 -7 c26 -3 61 -8 77 -11z m-1800 -137 c-114 -82 -409 -360 -540 -508
-406 -458 -781 -1068 -1082 -1759 -30 -69 -61 -138 -69 -154 -8 -16 -14 -33
-14 -38 0 -5 -10 -30 -21 -56 -12 -25 -36 -87 -54 -137 l-33 -90 -1381 -1
-1382 -2 28 37 c115 153 323 382 560 618 147 146 242 234 458 422 221 192 662
510 950 685 61 37 117 71 125 76 141 86 494 270 705 367 316 146 723 297 1099
407 120 35 470 121 575 140 47 9 87 18 89 21 3 3 8 2 11 -1 3 -3 -8 -15 -24
-27z m3086 -2 c68 -15 133 -28 144 -31 11 -2 29 -6 40 -8 169 -35 765 -215
880 -265 11 -5 70 -28 130 -51 277 -105 651 -276 865 -396 36 -20 99 -54 140
-77 207 -112 501 -301 746 -477 137 -100 401 -306 480 -376 12 -11 48 -41 80
-69 110 -94 169 -149 385 -365 248 -248 399 -414 557 -612 12 -16 -84 -17
-1369 -15 l-1382 2 -78 195 c-44 107 -83 204 -88 215 -6 11 -42 92 -81 180
-125 279 -340 686 -468 885 -207 323 -367 540 -560 757 -86 98 -267 281 -332
338 -106 92 -188 159 -207 173 -21 13 -34 40 -15 28 5 -3 64 -17 133 -31z
m-5041 -3139 c0 -7 -11 -46 -25 -87 -35 -102 -137 -448 -175 -594 -40 -152
-107 -427 -116 -475 -3 -13 -13 -60 -24 -105 -10 -44 -21 -97 -24 -119 -4 -21
-8 -41 -10 -45 -2 -3 -7 -22 -10 -41 -3 -19 -10 -60 -16 -90 -6 -30 -13 -66
-16 -80 -2 -14 -9 -47 -14 -75 -6 -27 -13 -68 -15 -90 -3 -22 -12 -74 -20
-115 -14 -70 -46 -282 -60 -395 -4 -27 -8 -61 -11 -75 -2 -14 -6 -49 -10 -78
-3 -29 -7 -61 -9 -70 -1 -9 -6 -46 -9 -82 -4 -36 -11 -99 -16 -140 -6 -41 -12
-104 -15 -140 -3 -36 -7 -81 -10 -100 -2 -19 -7 -69 -10 -110 -3 -41 -8 -100
-10 -130 -7 -68 -12 -152 -20 -300 -4 -63 -8 -144 -10 -180 -2 -36 -7 -175
-10 -310 -4 -134 -8 -247 -11 -251 -2 -4 -828 -6 -1835 -7 l-1831 0 7 147 c8
189 18 339 30 446 11 95 17 150 20 165 1 8 6 42 10 75 4 32 8 66 10 75 1 8 5
36 9 61 8 57 10 67 35 210 11 64 23 134 27 155 3 21 8 42 10 45 2 3 6 21 9 40
13 76 109 455 157 614 83 281 223 661 323 880 17 39 40 90 51 115 26 61 181
371 249 498 82 153 223 384 358 589 l121 181 1458 0 c1129 0 1458 -3 1458 -12z
m3245 -2136 l0 -2145 -1760 -1 c-1240 -1 -1762 1 -1767 9 -3 6 -5 54 -3 106 2
53 7 182 10 286 6 192 9 244 21 435 12 202 17 259 34 445 5 55 12 127 15 159
3 33 7 71 9 85 3 14 7 57 11 94 3 37 8 78 10 89 3 12 7 44 10 72 3 28 7 65 9
81 31 218 37 262 41 275 2 8 6 38 10 65 13 113 86 521 121 680 18 82 17 77 38
180 9 44 23 103 31 130 8 28 16 61 18 75 26 147 219 819 291 1017 4 8 361 11
1428 10 l1423 -2 0 -2145z m3244 2121 c54 -139 258 -849 285 -991 3 -14 23
-104 45 -200 22 -96 54 -249 71 -340 18 -91 34 -174 36 -185 10 -50 64 -385
69 -430 4 -27 8 -57 10 -65 5 -19 63 -475 70 -555 6 -68 14 -143 20 -195 2
-19 7 -73 10 -120 3 -47 8 -101 10 -120 2 -19 7 -78 10 -130 3 -52 8 -122 10
-155 10 -144 21 -433 26 -655 l3 -125 -1765 0 -1764 0 -2 2147 -2 2146 1424 0
1424 0 10 -27z m3421 -148 c98 -146 159 -242 241 -381 316 -532 574 -1133 764
-1778 26 -88 118 -454 131 -519 4 -22 8 -44 10 -50 6 -26 36 -183 40 -210 3
-16 9 -52 14 -80 5 -27 12 -68 15 -90 3 -22 7 -51 10 -65 6 -35 23 -174 31
-245 3 -33 8 -68 9 -77 2 -9 7 -57 10 -105 4 -48 8 -99 10 -113 2 -14 7 -86
10 -160 4 -74 8 -160 9 -191 l3 -56 -1833 -1 -1834 0 -1 47 c-4 185 -18 562
-24 636 -2 33 -7 110 -10 170 -4 61 -8 128 -10 150 -2 22 -6 81 -9 130 -4 50
-8 99 -10 110 -2 11 -7 56 -10 100 -4 44 -9 98 -11 120 -7 51 -13 106 -20 175
-3 30 -8 69 -10 85 -2 17 -7 53 -10 80 -6 48 -22 171 -30 225 -2 14 -7 48 -11
75 -3 28 -8 59 -10 70 -3 11 -9 52 -14 90 -14 92 -15 101 -51 295 -17 91 -33
176 -35 190 -4 20 -41 204 -68 330 -14 66 -46 203 -66 280 -12 47 -23 92 -25
100 -19 90 -140 519 -200 705 -19 60 -35 115 -35 121 0 8 373 11 1458 10
l1457 -1 115 -172z m-10585 -4512 c2 -4 7 -107 10 -229 3 -121 8 -258 10 -304
3 -46 7 -135 10 -198 3 -63 8 -142 10 -175 10 -116 14 -171 20 -250 4 -44 8
-93 10 -110 2 -16 7 -65 10 -107 3 -42 7 -85 9 -95 2 -10 7 -49 10 -88 8 -84
16 -151 21 -185 2 -14 13 -97 25 -185 19 -152 24 -188 35 -245 3 -14 7 -47 10
-75 3 -27 8 -57 11 -66 2 -10 6 -31 9 -49 2 -17 6 -43 9 -58 3 -15 8 -43 11
-62 17 -108 113 -588 135 -670 5 -19 12 -49 14 -66 9 -50 74 -304 128 -499 55
-201 62 -223 124 -417 24 -75 44 -141 44 -146 0 -6 -516 -10 -1457 -10 l-1456
0 -41 57 c-42 57 -126 182 -188 281 -19 30 -51 80 -70 110 -158 251 -409 744
-535 1054 -25 61 -51 125 -58 141 -43 98 -157 430 -214 625 -17 58 -36 119
-41 135 -11 37 -87 340 -94 375 -2 14 -18 93 -35 175 -33 162 -33 163 -55 305
-24 155 -27 173 -32 220 -2 25 -6 55 -8 67 -3 12 -8 53 -11 90 -4 37 -8 79
-10 93 -8 58 -21 245 -30 441 l-7 127 1831 0 c1007 0 1833 -3 1836 -7z m3921
-2142 l0 -2147 -1425 0 -1426 1 -44 136 c-63 193 -64 195 -125 411 -48 169
-109 402 -122 465 -2 11 -6 29 -9 40 -9 38 -74 332 -79 356 -8 40 -45 232 -66
346 -11 58 -23 127 -26 152 -3 25 -7 48 -9 51 -2 3 -6 30 -10 60 -3 30 -8 62
-10 70 -2 8 -11 62 -20 120 -14 103 -17 124 -30 225 -3 28 -8 61 -10 75 -3 14
-7 50 -10 80 -5 53 -9 80 -19 165 -8 58 -14 129 -22 225 -3 47 -8 93 -10 103
-1 9 -6 56 -9 105 -3 48 -8 105 -10 127 -2 22 -7 96 -10 165 -4 69 -9 145 -10
170 -4 46 -16 394 -20 550 -1 47 0 88 2 91 1 4 796 6 1765 5 l1763 -1 1 -2146z
m3915 2138 c8 -79 -15 -666 -36 -942 -15 -186 -20 -253 -30 -355 -2 -19 -6
-69 -10 -110 -3 -41 -8 -86 -10 -100 -2 -14 -7 -47 -9 -75 -3 -27 -11 -90 -17
-140 -6 -49 -13 -108 -15 -130 -6 -49 -18 -128 -38 -261 -9 -56 -18 -123 -21
-150 -4 -26 -8 -51 -10 -54 -2 -4 -7 -29 -10 -56 -4 -27 -8 -56 -10 -64 -2 -8
-7 -30 -10 -47 -3 -18 -8 -48 -11 -65 -3 -18 -8 -42 -9 -53 -2 -11 -18 -90
-35 -175 -17 -85 -34 -166 -36 -180 -18 -96 -122 -521 -169 -692 -3 -10 -7
-26 -9 -35 -21 -86 -135 -460 -172 -559 l-15 -42 -1423 0 -1424 0 0 2148 -1
2148 1765 0 c1329 0 1764 -3 1765 -11z m4054 -76 c-6 -132 -16 -302 -20 -341
-2 -19 -6 -71 -10 -115 -11 -123 -15 -157 -30 -266 -3 -20 -7 -54 -10 -75 -2
-21 -6 -52 -9 -69 -3 -16 -14 -86 -26 -155 -11 -69 -25 -145 -30 -170 -5 -25
-21 -99 -35 -166 -14 -66 -27 -129 -29 -140 -2 -10 -22 -89 -45 -174 -183
-707 -464 -1379 -844 -2020 -65 -110 -97 -161 -226 -356 l-106 -161 -1457 0
c-935 -1 -1458 3 -1458 9 0 5 29 105 64 221 57 188 132 446 141 487 2 8 24 98
49 200 26 102 48 195 51 208 2 12 6 30 9 40 5 15 82 395 102 497 4 22 9 47 11
55 1 8 5 29 7 45 3 17 16 95 30 175 13 80 30 181 36 225 7 44 13 87 15 96 2 8
6 42 9 75 4 32 9 68 11 79 2 11 7 45 10 76 3 31 7 65 9 75 3 19 10 73 22 189
3 33 8 67 9 76 2 8 6 55 10 105 4 49 9 97 10 106 2 9 6 61 10 115 3 54 8 112
10 128 2 17 7 82 10 145 4 63 8 138 10 165 6 89 21 483 24 647 l1 56 1834 0
1835 0 -4 -87z m-10986 -4816 c189 -468 363 -818 609 -1225 68 -111 193 -302
244 -370 98 -132 254 -330 311 -395 160 -180 395 -403 566 -537 l35 -26 -66
13 c-36 8 -76 16 -89 19 -45 8 -374 87 -405 97 -17 5 -40 11 -50 14 -33 6
-325 95 -419 127 -217 73 -551 205 -760 301 -198 91 -619 312 -755 397 -8 5
-60 37 -115 71 -199 123 -561 378 -700 491 -11 9 -58 47 -105 85 -47 37 -87
70 -90 73 -3 3 -34 30 -70 60 -36 30 -67 57 -70 60 -3 3 -57 52 -120 110 -276
253 -631 632 -792 846 -6 9 342 11 1372 10 l1380 -1 89 -220z m3017 -1228 l0
-1449 -55 7 c-183 22 -409 93 -607 191 -687 340 -1298 1060 -1802 2124 -83
175 -213 482 -236 556 l-7 22 1353 -2 1353 -1 1 -1448z m3094 1446 c0 -7 -124
-309 -153 -373 -14 -30 -35 -77 -47 -105 -189 -421 -438 -850 -699 -1205 -170
-231 -455 -533 -651 -692 -344 -277 -761 -472 -1102 -513 l-57 -7 0 1450 0
1449 1355 1 c745 0 1354 -2 1354 -5z m3148 -12 c-155 -198 -413 -478 -670
-726 -810 -781 -1807 -1387 -2888 -1757 -180 -61 -480 -148 -645 -187 -172
-40 -230 -53 -255 -57 -14 -3 -51 -11 -84 -18 l-59 -14 24 22 c13 12 60 51
104 86 227 184 479 452 698 741 355 471 676 1056 943 1719 43 107 82 198 87
202 6 3 628 6 1384 6 1270 0 1373 -1 1361 -17z m-17130 -3405 c29 -8 55 -14
58 -14 18 0 130 -52 186 -88 151 -97 273 -253 331 -424 14 -41 18 -61 33 -145
3 -16 5 -70 5 -120 1 -280 -176 -560 -437 -693 -52 -27 -153 -60 -201 -68 -21
-3 -49 -7 -63 -10 -29 -6 -169 -6 -179 0 -3 2 -29 6 -58 10 -208 25 -437 190
-551 397 -29 52 -73 178 -87 244 -21 109 -8 279 30 392 39 114 136 265 210
324 11 9 31 27 45 39 82 74 229 141 356 164 93 17 245 13 322 -8z m22602 9
c86 -13 202 -59 290 -114 78 -49 199 -174 248 -257 106 -177 138 -365 99 -579
-15 -83 -70 -209 -128 -290 -110 -157 -299 -281 -484 -321 -65 -13 -260 -13
-326 1 -370 79 -626 392 -633 775 -2 58 2 95 20 194 8 40 39 120 71 181 117
222 356 385 613 418 42 6 168 1 230 -8z m-20404 -2250 c24 -3 47 -6 51 -7 24
-1 157 -55 210 -84 324 -179 484 -580 371 -934 -26 -81 -49 -129 -100 -203
-55 -82 -83 -112 -163 -176 -146 -117 -310 -174 -495 -173 -192 2 -351 57
-495 173 -349 282 -398 792 -111 1132 176 208 459 313 732 272z m18125 2 c295
-43 546 -254 639 -537 30 -91 35 -136 34 -280 -1 -114 -4 -134 -34 -220 -18
-52 -41 -107 -51 -122 -11 -14 -19 -30 -19 -35 0 -30 -158 -197 -238 -252 -65
-44 -197 -99 -277 -116 -182 -38 -354 -16 -523 67 -89 44 -116 63 -196 142
-122 121 -179 221 -227 401 -22 82 -17 275 10 369 73 261 267 466 520 549 42
14 103 29 136 32 33 4 61 8 62 9 4 4 125 -2 164 -7z"/>
</g>
</svg>
