<svg width="960" height="189" xmlns="http://www.w3.org/2000/svg" xmlns:xlink="http://www.w3.org/1999/xlink" overflow="hidden"><defs><clipPath id="clip0"><rect x="0" y="0" width="960" height="189"/></clipPath><linearGradient x1="480" y1="-17.0251" x2="480" y2="203.775" gradientUnits="userSpaceOnUse" spreadMethod="reflect" id="fill1"><stop offset="0" stop-color="#FFC000"/><stop offset="0.04" stop-color="#FFD966"/><stop offset="0.87" stop-color="#FFF2CC"/><stop offset="1" stop-color="#FFF2CC"/></linearGradient></defs><g clip-path="url(#clip0)"><rect x="0" y="0" width="960" height="189" fill="#FFFFFF" fill-opacity="0"/><path d="M285.194 103.854 285.194 136.916 302.265 136.916C305.559 136.916 308.329 136.572 310.575 135.883 312.821 135.194 314.768 134.176 316.415 132.828 318.062 131.481 319.35 129.804 320.278 127.797 321.207 125.791 321.671 123.5 321.671 120.924 321.671 118.229 321.222 115.818 320.323 113.692 319.425 111.565 318.107 109.784 316.37 108.346 314.633 106.909 312.417 105.8 309.722 105.022 307.026 104.243 303.522 103.854 299.21 103.854ZM500.94 84.5374C497.586 84.5374 494.651 85.1513 492.136 86.3792 489.62 87.6071 487.554 89.4039 485.937 91.7698 484.319 94.1357 483.106 96.9808 482.298 100.305 481.489 103.629 481.085 107.418 481.085 111.67 481.085 115.623 481.414 119.262 482.073 122.586 482.732 125.91 483.795 128.8 485.263 131.256 486.73 133.712 488.722 135.614 491.237 136.961 493.753 138.309 496.867 138.983 500.581 138.983 503.995 138.983 506.96 138.369 509.476 137.141 511.991 135.913 514.058 134.131 515.675 131.795 517.292 129.459 518.49 126.629 519.269 123.305 520.047 119.981 520.437 116.192 520.437 111.94 520.437 107.987 520.122 104.348 519.493 101.024 518.864 97.6995 517.801 94.8095 516.304 92.3538 514.806 89.8981 512.815 87.9814 510.329 86.6038 507.843 85.2262 504.714 84.5374 500.94 84.5374ZM401.94 84.5374C398.586 84.5374 395.651 85.1513 393.136 86.3792 390.62 87.6071 388.554 89.4039 386.936 91.7698 385.319 94.1357 384.106 96.9808 383.298 100.305 382.489 103.629 382.085 107.418 382.085 111.67 382.085 115.623 382.414 119.262 383.073 122.586 383.732 125.91 384.795 128.8 386.263 131.256 387.73 133.712 389.722 135.614 392.237 136.961 394.753 138.309 397.867 138.983 401.581 138.983 404.995 138.983 407.96 138.369 410.476 137.141 412.991 135.913 415.058 134.131 416.675 131.795 418.292 129.459 419.49 126.629 420.269 123.305 421.047 119.981 421.436 116.192 421.436 111.94 421.436 107.987 421.122 104.348 420.493 101.024 419.864 97.6995 418.801 94.8095 417.304 92.3538 415.806 89.8981 413.815 87.9814 411.329 86.6038 408.843 85.2262 405.714 84.5374 401.94 84.5374ZM676.968 66.6585C679.483 66.6585 681.924 66.8382 684.29 67.1976 686.656 67.5569 688.797 68.0062 690.714 68.5452 692.63 69.0843 694.248 69.6683 695.565 70.2972 696.883 70.9261 697.826 71.4651 698.396 71.9144 698.964 72.3636 699.369 72.8128 699.608 73.262 699.848 73.7112 700.028 74.2503 700.147 74.8792 700.267 75.5081 700.372 76.2868 700.462 77.2151 700.552 78.1435 700.597 79.2965 700.597 80.6741 700.597 82.2913 700.552 83.609 700.462 84.6273 700.372 85.6455 700.222 86.4541 700.013 87.053 699.803 87.652 699.519 88.0563 699.159 88.2659 698.8 88.4756 698.38 88.5804 697.901 88.5804 697.362 88.5804 696.524 88.2659 695.386 87.637 694.248 87.0081 692.825 86.3343 691.118 85.6155 689.411 84.8968 687.435 84.223 685.188 83.5941 682.942 82.9651 680.382 82.6507 677.507 82.6507 675.47 82.6507 673.703 82.8603 672.206 83.2796 670.709 83.6989 669.481 84.2978 668.522 85.0765 667.564 85.8551 666.845 86.7685 666.366 87.8167 665.887 88.8649 665.647 89.9879 665.647 91.1859 665.647 93.0426 666.216 94.5999 667.354 95.8577 668.492 97.1155 669.99 98.2236 671.847 99.1819 673.703 100.14 675.815 101.039 678.181 101.877 680.547 102.716 682.942 103.629 685.368 104.617 687.794 105.606 690.19 106.759 692.556 108.076 694.922 109.394 697.033 111.011 698.89 112.928 700.746 114.845 702.244 117.136 703.382 119.801 704.52 122.466 705.089 125.626 705.089 129.28 705.089 133.832 704.235 137.845 702.528 141.319 700.821 144.793 698.41 147.698 695.296 150.034 692.181 152.369 688.498 154.121 684.245 155.289 679.992 156.457 675.38 157.041 670.409 157.041 667.414 157.041 664.554 156.817 661.829 156.367 659.104 155.918 656.663 155.349 654.507 154.66 652.351 153.972 650.554 153.268 649.116 152.549 647.679 151.83 646.63 151.157 645.972 150.528 645.313 149.899 644.804 148.91 644.444 147.563 644.085 146.215 643.905 144.224 643.905 141.588 643.905 139.851 643.965 138.459 644.085 137.41 644.205 136.362 644.384 135.524 644.624 134.895 644.864 134.266 645.163 133.847 645.522 133.637 645.882 133.427 646.331 133.323 646.87 133.323 647.529 133.323 648.502 133.697 649.79 134.446 651.078 135.194 652.68 136.018 654.597 136.916 656.513 137.815 658.744 138.653 661.29 139.432 663.836 140.211 666.726 140.6 669.96 140.6 671.996 140.6 673.808 140.39 675.396 139.971 676.983 139.552 678.36 138.953 679.528 138.174 680.696 137.395 681.58 136.407 682.179 135.209 682.778 134.011 683.077 132.634 683.077 131.076 683.077 129.28 682.523 127.737 681.415 126.45 680.307 125.162 678.839 124.039 677.013 123.08 675.186 122.122 673.119 121.224 670.813 120.385 668.507 119.547 666.142 118.618 663.716 117.6 661.29 116.582 658.924 115.414 656.618 114.096 654.312 112.778 652.246 111.161 650.419 109.244 648.592 107.328 647.125 105.022 646.017 102.326 644.909 99.6312 644.354 96.3968 644.354 92.6233 644.354 88.79 645.103 85.2711 646.601 82.0667 648.098 78.8623 650.254 76.122 653.069 73.846 655.884 71.57 659.313 69.803 663.356 68.5452 667.399 67.2874 671.937 66.6585 676.968 66.6585ZM501.749 66.6585C508.937 66.6585 515.166 67.6318 520.437 69.5784 525.707 71.525 530.065 74.3851 533.509 78.1585 536.953 81.9319 539.513 86.5739 541.19 92.0843 542.867 97.5947 543.706 103.914 543.706 111.041 543.706 117.869 542.808 124.099 541.011 129.729 539.214 135.359 536.489 140.211 532.835 144.284 529.181 148.356 524.599 151.501 519.089 153.717 513.578 155.933 507.14 157.041 499.772 157.041 492.645 157.041 486.446 156.053 481.175 154.076 475.904 152.1 471.532 149.225 468.058 145.451 464.584 141.678 462.008 137.036 460.331 131.526 458.654 126.015 457.815 119.726 457.815 112.659 457.815 105.83 458.729 99.5862 460.556 93.9261 462.382 88.2659 465.123 83.4144 468.776 79.3714 472.43 75.3284 476.997 72.1989 482.478 69.9827 487.958 67.7666 494.382 66.6585 501.749 66.6585ZM402.749 66.6585C409.937 66.6585 416.166 67.6318 421.436 69.5784 426.707 71.525 431.065 74.3851 434.509 78.1585 437.953 81.9319 440.513 86.5739 442.19 92.0843 443.867 97.5947 444.706 103.914 444.706 111.041 444.706 117.869 443.808 124.099 442.011 129.729 440.214 135.359 437.489 140.211 433.835 144.284 430.181 148.356 425.599 151.501 420.089 153.717 414.578 155.933 408.14 157.041 400.772 157.041 393.645 157.041 387.446 156.053 382.175 154.076 376.904 152.1 372.532 149.225 369.058 145.451 365.584 141.678 363.008 137.036 361.331 131.526 359.654 126.015 358.815 119.726 358.815 112.659 358.815 105.83 359.729 99.5862 361.556 93.9261 363.382 88.2659 366.123 83.4144 369.776 79.3714 373.43 75.3284 377.997 72.1989 383.478 69.9827 388.958 67.7666 395.382 66.6585 402.749 66.6585ZM285.194 56.4163 285.194 86.6038 298.401 86.6038C301.815 86.6038 304.541 86.1995 306.577 85.3909 308.614 84.5823 310.306 83.4743 311.653 82.0667 313.001 80.6591 314.004 79.012 314.663 77.1253 315.322 75.2386 315.651 73.247 315.651 71.1507 315.651 68.8148 315.292 66.7184 314.573 64.8616 313.854 63.0049 312.776 61.4625 311.339 60.2347 309.901 59.0068 308.09 58.0635 305.903 57.4046 303.717 56.7457 300.797 56.4163 297.144 56.4163ZM269.022 38.7171 298.222 38.7171C305.349 38.7171 311.384 39.316 316.325 40.514 321.267 41.7119 325.429 43.5237 328.813 45.9495 332.198 48.3753 334.788 51.445 336.585 55.1585 338.382 58.8721 339.28 63.2444 339.28 68.2757 339.28 71.0908 338.921 73.7412 338.202 76.2269 337.483 78.7125 336.435 80.9736 335.058 83.0101 333.68 85.0465 331.988 86.8434 329.981 88.4007 327.975 89.958 325.684 91.2158 323.108 92.1741 326.403 92.7731 329.442 93.8213 332.228 95.3187 335.013 96.8161 337.438 98.7477 339.505 101.114 341.571 103.479 343.203 106.25 344.401 109.424 345.599 112.599 346.198 116.162 346.198 120.116 346.198 124.248 345.629 127.992 344.491 131.346 343.353 134.7 341.781 137.665 339.774 140.241 337.768 142.816 335.372 145.032 332.587 146.889 329.802 148.746 326.732 150.273 323.378 151.471 320.024 152.669 316.445 153.552 312.642 154.121 308.838 154.69 304.601 154.975 299.929 154.975L269.022 154.975C267.046 154.975 265.384 154.391 264.036 153.223 262.688 152.055 262.015 150.153 262.015 147.518L262.015 46.1741C262.015 43.5387 262.688 41.637 264.036 40.4691 265.384 39.3011 267.046 38.7171 269.022 38.7171ZM572.987 29.9124C575.203 29.9124 577.03 30.0023 578.468 30.1819 579.905 30.3616 581.058 30.6162 581.927 30.9456 582.795 31.275 583.409 31.6793 583.769 32.1585 584.128 32.6377 584.308 33.1767 584.308 33.7757L584.308 104.123 608.026 72.2288C608.505 71.5101 609.045 70.8812 609.644 70.3421 610.242 69.803 611.036 69.3838 612.024 69.0843 613.013 68.7848 614.241 68.5602 615.708 68.4105 617.175 68.2607 619.047 68.1859 621.323 68.1859 623.539 68.1859 625.411 68.2607 626.938 68.4105 628.466 68.5602 629.694 68.7848 630.622 69.0843 631.55 69.3838 632.194 69.7581 632.554 70.2073 632.913 70.6566 633.093 71.2106 633.093 71.8694 633.093 72.7679 632.868 73.7262 632.419 74.7444 631.97 75.7627 631.296 76.8408 630.397 77.9788L606.948 104.573 634.081 146.53C634.8 147.728 635.324 148.761 635.653 149.629 635.983 150.498 636.147 151.291 636.147 152.01 636.147 152.609 635.983 153.133 635.653 153.582 635.324 154.032 634.725 154.391 633.856 154.66 632.988 154.93 631.805 155.14 630.308 155.289 628.81 155.439 626.864 155.514 624.468 155.514 622.012 155.514 620.021 155.454 618.493 155.334 616.966 155.214 615.708 155.02 614.72 154.75 613.731 154.481 612.968 154.106 612.429 153.627 611.89 153.148 611.41 152.519 610.991 151.741L584.308 109.514 584.308 151.92C584.308 152.519 584.128 153.043 583.769 153.492 583.409 153.942 582.795 154.316 581.927 154.616 581.058 154.915 579.905 155.14 578.468 155.289 577.03 155.439 575.203 155.514 572.987 155.514 570.771 155.514 568.944 155.439 567.507 155.289 566.069 155.14 564.916 154.915 564.048 154.616 563.179 154.316 562.565 153.942 562.206 153.492 561.847 153.043 561.667 152.519 561.667 151.92L561.667 33.7757C561.667 33.1767 561.847 32.6377 562.206 32.1585 562.565 31.6793 563.179 31.275 564.048 30.9456 564.916 30.6162 566.069 30.3616 567.507 30.1819 568.944 30.0023 570.771 29.9124 572.987 29.9124Z" stroke="#FFC000" stroke-linejoin="round" stroke-miterlimit="10" fill="url(#fill1)" fill-rule="evenodd"/><text fill="#000000" fill-opacity="0" font-family="Arial,Arial_MSFontService,sans-serif" font-size="127.129" x="262.015" y="141.15">Books</text></g></svg>