<svg width="960" height="189" xmlns="http://www.w3.org/2000/svg" xmlns:xlink="http://www.w3.org/1999/xlink" overflow="hidden"><defs><clipPath id="clip0"><rect x="0" y="0" width="960" height="189"/></clipPath><linearGradient x1="480" y1="-17.0251" x2="480" y2="203.775" gradientUnits="userSpaceOnUse" spreadMethod="reflect" id="fill1"><stop offset="0" stop-color="#FFC000"/><stop offset="0.04" stop-color="#FFD966"/><stop offset="0.87" stop-color="#FFF2CC"/><stop offset="1" stop-color="#FFF2CC"/></linearGradient></defs><g clip-path="url(#clip0)"><rect x="0" y="0" width="960" height="189" fill="#4472C4" fill-opacity="0"/><path d="M156.987 84.5374C153.633 84.5374 150.698 85.1513 148.182 86.3792 145.667 87.6071 143.6 89.4039 141.983 91.7698 140.366 94.1357 139.153 96.9808 138.344 100.305 137.536 103.629 137.132 107.418 137.132 111.67 137.132 115.623 137.461 119.262 138.12 122.586 138.779 125.91 139.842 128.8 141.309 131.256 142.777 133.712 144.768 135.614 147.284 136.961 149.8 138.309 152.914 138.983 156.628 138.983 160.042 138.983 163.007 138.369 165.522 137.141 168.038 135.913 170.104 134.131 171.721 131.795 173.339 129.459 174.536 126.629 175.315 123.305 176.094 119.981 176.483 116.192 176.483 111.94 176.483 107.987 176.169 104.348 175.54 101.024 174.911 97.6995 173.848 94.8095 172.35 92.3538 170.853 89.8981 168.861 87.9814 166.376 86.6038 163.89 85.2262 160.76 84.5374 156.987 84.5374ZM830.382 82.6507C827.507 82.6507 825.006 83.1898 822.88 84.2679 820.753 85.346 818.986 86.7985 817.579 88.6253 816.171 90.4521 815.093 92.6084 814.344 95.0941 813.596 97.5797 813.161 100.23 813.042 103.045L846.823 103.045C847.003 96.6963 845.73 91.7099 843.005 88.0862 840.279 84.4625 836.072 82.6507 830.382 82.6507ZM562.382 82.6507C559.507 82.6507 557.006 83.1898 554.88 84.2679 552.753 85.346 550.986 86.7985 549.579 88.6253 548.171 90.4521 547.093 92.6084 546.344 95.0941 545.596 97.5797 545.161 100.23 545.042 103.045L578.823 103.045C579.003 96.6963 577.73 91.7099 575.005 88.0862 572.279 84.4625 568.072 82.6507 562.382 82.6507ZM406.382 82.6507C403.507 82.6507 401.006 83.1898 398.88 84.2679 396.753 85.346 394.986 86.7985 393.579 88.6253 392.171 90.4521 391.093 92.6084 390.344 95.0941 389.596 97.5797 389.161 100.23 389.042 103.045L422.823 103.045C423.003 96.6963 421.73 91.7099 419.005 88.0862 416.279 84.4625 412.072 82.6507 406.382 82.6507ZM753.202 66.7484C755.598 66.7484 757.949 66.958 760.255 67.3773 762.561 67.7965 764.717 68.3655 766.723 69.0843 768.73 69.803 770.527 70.6116 772.114 71.5101 773.701 72.4085 774.824 73.1871 775.483 73.846 776.142 74.5049 776.606 75.0589 776.876 75.5081 777.145 75.9573 777.355 76.5413 777.505 77.2601 777.654 77.9788 777.774 78.8623 777.864 79.9105 777.954 80.9586 777.999 82.2314 777.999 83.7288 777.999 87.2028 777.699 89.6435 777.1 91.0511 776.501 92.4586 775.723 93.1624 774.764 93.1624 773.746 93.1624 772.668 92.7431 771.53 91.9046 770.392 91.0661 769.044 90.1377 767.487 89.1194 765.93 88.1012 764.073 87.1728 761.917 86.3343 759.76 85.4957 757.185 85.0765 754.19 85.0765 748.32 85.0765 743.828 87.3375 740.714 91.8597 737.599 96.3818 736.042 103.015 736.042 111.76 736.042 116.073 736.431 119.876 737.21 123.17 737.988 126.464 739.141 129.22 740.669 131.436 742.196 133.652 744.113 135.314 746.419 136.422 748.725 137.53 751.405 138.084 754.46 138.084 757.574 138.084 760.255 137.62 762.501 136.692 764.747 135.763 766.708 134.73 768.385 133.592 770.062 132.454 771.47 131.421 772.608 130.492 773.746 129.564 774.704 129.1 775.483 129.1 776.022 129.1 776.471 129.25 776.831 129.549 777.19 129.849 777.475 130.403 777.684 131.211 777.894 132.02 778.059 133.053 778.178 134.311 778.298 135.569 778.358 137.186 778.358 139.162 778.358 140.72 778.313 142.022 778.223 143.071 778.133 144.119 778.014 145.002 777.864 145.721 777.714 146.44 777.535 147.024 777.325 147.473 777.115 147.922 776.651 148.491 775.932 149.18 775.214 149.869 773.986 150.707 772.249 151.696 770.512 152.684 768.535 153.567 766.319 154.346 764.103 155.125 761.692 155.754 759.087 156.233 756.481 156.712 753.801 156.951 751.046 156.951 744.876 156.951 739.411 155.993 734.649 154.076 729.887 152.16 725.889 149.33 722.655 145.586 719.421 141.843 716.98 137.276 715.333 131.885 713.686 126.494 712.862 120.325 712.862 113.377 712.862 105.351 713.865 98.4183 715.872 92.5784 717.878 86.7386 720.678 81.902 724.272 78.0687 727.866 74.2353 732.118 71.3903 737.03 69.5335 741.941 67.6767 747.332 66.7484 753.202 66.7484ZM916.014 66.6585C918.53 66.6585 920.971 66.8382 923.337 67.1976 925.703 67.5569 927.844 68.0062 929.76 68.5452 931.677 69.0843 933.294 69.6683 934.612 70.2972 935.93 70.9261 936.873 71.4651 937.442 71.9144 938.011 72.3636 938.415 72.8128 938.655 73.262 938.895 73.7112 939.074 74.2503 939.194 74.8792 939.314 75.5081 939.419 76.2868 939.508 77.2151 939.598 78.1435 939.643 79.2965 939.643 80.6741 939.643 82.2913 939.598 83.609 939.508 84.6273 939.419 85.6455 939.269 86.4541 939.059 87.053 938.85 87.652 938.565 88.0563 938.206 88.2659 937.846 88.4756 937.427 88.5804 936.948 88.5804 936.409 88.5804 935.57 88.2659 934.432 87.637 933.294 87.0081 931.872 86.3343 930.165 85.6155 928.458 84.8968 926.481 84.223 924.235 83.5941 921.989 82.9651 919.428 82.6507 916.553 82.6507 914.517 82.6507 912.75 82.8603 911.253 83.2796 909.755 83.6989 908.527 84.2978 907.569 85.0765 906.611 85.8551 905.892 86.7685 905.413 87.8167 904.934 88.8649 904.694 89.9879 904.694 91.1859 904.694 93.0426 905.263 94.5999 906.401 95.8577 907.539 97.1155 909.036 98.2236 910.893 99.1819 912.75 100.14 914.861 101.039 917.227 101.877 919.593 102.716 921.989 103.629 924.415 104.617 926.841 105.606 929.236 106.759 931.602 108.076 933.968 109.394 936.079 111.011 937.936 112.928 939.793 114.845 941.29 117.136 942.428 119.801 943.566 122.466 944.135 125.626 944.135 129.28 944.135 133.832 943.282 137.845 941.575 141.319 939.868 144.793 937.457 147.698 934.342 150.034 931.228 152.369 927.544 154.121 923.292 155.289 919.039 156.457 914.427 157.041 909.456 157.041 906.461 157.041 903.601 156.817 900.876 156.367 898.15 155.918 895.71 155.349 893.553 154.66 891.397 153.972 889.6 153.268 888.163 152.549 886.725 151.83 885.677 151.157 885.018 150.528 884.359 149.899 883.85 148.91 883.491 147.563 883.132 146.215 882.952 144.224 882.952 141.588 882.952 139.851 883.012 138.459 883.132 137.41 883.251 136.362 883.431 135.524 883.671 134.895 883.91 134.266 884.21 133.847 884.569 133.637 884.928 133.427 885.378 133.323 885.917 133.323 886.576 133.323 887.549 133.697 888.836 134.446 890.124 135.194 891.727 136.018 893.643 136.916 895.56 137.815 897.791 138.653 900.337 139.432 902.882 140.211 905.772 140.6 909.006 140.6 911.043 140.6 912.855 140.39 914.442 139.971 916.029 139.552 917.407 138.953 918.575 138.174 919.743 137.395 920.626 136.407 921.225 135.209 921.824 134.011 922.124 132.634 922.124 131.076 922.124 129.28 921.57 127.737 920.462 126.45 919.354 125.162 917.886 124.039 916.059 123.08 914.232 122.122 912.166 121.224 909.86 120.385 907.554 119.547 905.188 118.618 902.762 117.6 900.337 116.582 897.971 115.414 895.665 114.096 893.359 112.778 891.292 111.161 889.465 109.244 887.639 107.328 886.171 105.022 885.063 102.326 883.955 99.6312 883.401 96.3968 883.401 92.6233 883.401 88.79 884.15 85.2711 885.647 82.0667 887.145 78.8623 889.301 76.122 892.116 73.846 894.931 71.57 898.36 69.803 902.403 68.5452 906.446 67.2874 910.983 66.6585 916.014 66.6585ZM830.921 66.6585C837.629 66.6585 843.364 67.6468 848.126 69.6234 852.887 71.5999 856.796 74.3401 859.85 77.8441 862.905 81.348 865.151 85.4957 866.589 90.2874 868.026 95.0791 868.745 100.29 868.745 105.92L868.745 109.514C868.745 112.269 868.131 114.306 866.903 115.623 865.675 116.941 863.983 117.6 861.827 117.6L813.042 117.6C813.042 121.014 813.446 124.114 814.255 126.899 815.063 129.684 816.351 132.05 818.118 133.996 819.885 135.943 822.161 137.425 824.946 138.444 827.731 139.462 831.07 139.971 834.964 139.971 838.917 139.971 842.391 139.686 845.385 139.117 848.38 138.548 850.971 137.92 853.157 137.231 855.343 136.542 857.155 135.913 858.592 135.344 860.03 134.775 861.198 134.491 862.096 134.491 862.635 134.491 863.085 134.595 863.444 134.805 863.803 135.015 864.103 135.389 864.342 135.928 864.582 136.467 864.747 137.231 864.837 138.219 864.926 139.207 864.971 140.45 864.971 141.948 864.971 143.265 864.941 144.388 864.882 145.317 864.822 146.245 864.732 147.039 864.612 147.698 864.492 148.356 864.313 148.91 864.073 149.36 863.833 149.809 863.519 150.243 863.13 150.662 862.74 151.082 861.677 151.651 859.94 152.369 858.203 153.088 855.987 153.792 853.292 154.481 850.596 155.17 847.512 155.769 844.038 156.278 840.564 156.787 836.85 157.041 832.897 157.041 825.77 157.041 819.525 156.143 814.165 154.346 808.804 152.549 804.327 149.824 800.733 146.17 797.139 142.517 794.459 137.905 792.692 132.334 790.925 126.764 790.042 120.235 790.042 112.748 790.042 105.621 790.97 99.1969 792.827 93.4769 794.684 87.7568 797.379 82.9052 800.913 78.9222 804.447 74.9391 808.744 71.8994 813.805 69.803 818.867 67.7067 824.572 66.6585 830.921 66.6585ZM666.882 66.6585C672.332 66.6585 676.929 67.5569 680.673 69.3538 684.416 71.1507 687.441 73.5914 689.747 76.6761 692.053 79.7607 693.715 83.3694 694.733 87.5023 695.751 91.6351 696.26 96.6064 696.26 102.416L696.26 151.92C696.26 152.519 696.081 153.043 695.721 153.492 695.362 153.942 694.763 154.316 693.924 154.616 693.086 154.915 691.933 155.14 690.466 155.289 688.998 155.439 687.186 155.514 685.03 155.514 682.814 155.514 680.972 155.439 679.505 155.289 678.037 155.14 676.884 154.915 676.046 154.616 675.207 154.316 674.608 153.942 674.249 153.492 673.889 153.043 673.71 152.519 673.71 151.92L673.71 106.19C673.71 102.297 673.425 99.2418 672.856 97.0257 672.287 94.8095 671.464 92.9079 670.385 91.3206 669.307 89.7334 667.915 88.5055 666.208 87.637 664.501 86.7685 662.509 86.3343 660.233 86.3343 657.358 86.3343 654.453 87.3825 651.518 89.4788 648.583 91.5752 645.529 94.6299 642.354 98.6429L642.354 151.92C642.354 152.519 642.174 153.043 641.815 153.492 641.456 153.942 640.842 154.316 639.973 154.616 639.105 154.915 637.952 155.14 636.514 155.289 635.077 155.439 633.25 155.514 631.034 155.514 628.818 155.514 626.991 155.439 625.553 155.289 624.116 155.14 622.963 154.915 622.094 154.616 621.226 154.316 620.612 153.942 620.253 153.492 619.893 153.043 619.714 152.519 619.714 151.92L619.714 71.7796C619.714 71.1806 619.863 70.6566 620.163 70.2073 620.462 69.7581 621.001 69.3838 621.78 69.0843 622.559 68.7848 623.562 68.5602 624.79 68.4105 626.018 68.2607 627.56 68.1859 629.417 68.1859 631.333 68.1859 632.921 68.2607 634.178 68.4105 635.436 68.5602 636.41 68.7848 637.098 69.0843 637.787 69.3838 638.281 69.7581 638.581 70.2073 638.88 70.6566 639.03 71.1806 639.03 71.7796L639.03 81.0335C643.462 76.2418 647.969 72.6481 652.551 70.2523 657.133 67.8564 661.91 66.6585 666.882 66.6585ZM562.921 66.6585C569.629 66.6585 575.364 67.6468 580.126 69.6234 584.887 71.5999 588.796 74.3401 591.85 77.8441 594.905 81.348 597.151 85.4957 598.589 90.2874 600.026 95.0791 600.745 100.29 600.745 105.92L600.745 109.514C600.745 112.269 600.131 114.306 598.903 115.623 597.675 116.941 595.983 117.6 593.827 117.6L545.042 117.6C545.042 121.014 545.446 124.114 546.255 126.899 547.063 129.684 548.351 132.05 550.118 133.996 551.885 135.943 554.161 137.425 556.946 138.444 559.731 139.462 563.07 139.971 566.964 139.971 570.917 139.971 574.391 139.686 577.385 139.117 580.38 138.548 582.971 137.92 585.157 137.231 587.343 136.542 589.155 135.913 590.592 135.344 592.03 134.775 593.198 134.491 594.096 134.491 594.635 134.491 595.085 134.595 595.444 134.805 595.803 135.015 596.103 135.389 596.343 135.928 596.582 136.467 596.747 137.231 596.837 138.219 596.927 139.207 596.971 140.45 596.971 141.948 596.971 143.265 596.941 144.388 596.882 145.317 596.822 146.245 596.732 147.039 596.612 147.698 596.492 148.356 596.312 148.91 596.073 149.36 595.833 149.809 595.519 150.243 595.13 150.662 594.74 151.082 593.677 151.651 591.94 152.369 590.203 153.088 587.987 153.792 585.292 154.481 582.596 155.17 579.512 155.769 576.038 156.278 572.564 156.787 568.85 157.041 564.897 157.041 557.77 157.041 551.525 156.143 546.165 154.346 540.804 152.549 536.327 149.824 532.733 146.17 529.139 142.517 526.459 137.905 524.692 132.334 522.925 126.764 522.042 120.235 522.042 112.748 522.042 105.621 522.97 99.1969 524.827 93.4769 526.684 87.7568 529.379 82.9052 532.913 78.9222 536.447 74.9391 540.744 71.8994 545.805 69.803 550.867 67.7067 556.572 66.6585 562.921 66.6585ZM504.323 66.6585C505.102 66.6585 505.94 66.7034 506.839 66.7933 507.737 66.8831 508.665 67.0329 509.624 67.2425 510.582 67.4521 511.421 67.6917 512.139 67.9612 512.858 68.2308 513.382 68.5153 513.712 68.8148 514.041 69.1142 514.281 69.4437 514.43 69.803 514.58 70.1624 514.715 70.6566 514.835 71.2855 514.954 71.9144 515.044 72.8577 515.104 74.1155 515.164 75.3734 515.194 77.0804 515.194 79.2366 515.194 81.3929 515.134 83.1598 515.014 84.5374 514.895 85.915 514.715 86.9931 514.475 87.7718 514.236 88.5504 513.921 89.0895 513.532 89.389 513.143 89.6884 512.648 89.8382 512.05 89.8382 511.57 89.8382 511.031 89.7334 510.432 89.5237 509.833 89.3141 509.16 89.0895 508.411 88.8499 507.662 88.6103 506.839 88.3857 505.94 88.1761 505.042 87.9664 504.053 87.8616 502.975 87.8616 501.717 87.8616 500.46 88.1162 499.202 88.6253 497.944 89.1344 496.641 89.928 495.294 91.0062 493.946 92.0843 492.538 93.5218 491.071 95.3187 489.604 97.1155 488.031 99.3317 486.354 101.967L486.354 151.92C486.354 152.519 486.175 153.043 485.815 153.492 485.456 153.942 484.842 154.316 483.973 154.616 483.105 154.915 481.952 155.14 480.514 155.289 479.077 155.439 477.25 155.514 475.034 155.514 472.818 155.514 470.991 155.439 469.553 155.289 468.116 155.14 466.963 154.915 466.094 154.616 465.226 154.316 464.612 153.942 464.253 153.492 463.893 153.043 463.714 152.519 463.714 151.92L463.714 71.7796C463.714 71.1806 463.863 70.6566 464.163 70.2073 464.462 69.7581 465.001 69.3838 465.78 69.0843 466.559 68.7848 467.562 68.5602 468.79 68.4105 470.018 68.2607 471.56 68.1859 473.417 68.1859 475.333 68.1859 476.921 68.2607 478.178 68.4105 479.436 68.5602 480.41 68.7848 481.098 69.0843 481.787 69.3838 482.281 69.7581 482.581 70.2073 482.88 70.6566 483.03 71.1806 483.03 71.7796L483.03 81.7523C485.126 78.7575 487.103 76.2868 488.96 74.3401 490.816 72.3935 492.583 70.8512 494.26 69.7132 495.938 68.5752 497.615 67.7816 499.292 67.3323 500.969 66.8831 502.646 66.6585 504.323 66.6585ZM406.921 66.6585C413.629 66.6585 419.364 67.6468 424.126 69.6234 428.887 71.5999 432.796 74.3401 435.85 77.8441 438.905 81.348 441.151 85.4957 442.589 90.2874 444.026 95.0791 444.745 100.29 444.745 105.92L444.745 109.514C444.745 112.269 444.131 114.306 442.903 115.623 441.675 116.941 439.983 117.6 437.827 117.6L389.042 117.6C389.042 121.014 389.446 124.114 390.255 126.899 391.063 129.684 392.351 132.05 394.118 133.996 395.885 135.943 398.161 137.425 400.946 138.444 403.731 139.462 407.07 139.971 410.964 139.971 414.917 139.971 418.391 139.686 421.385 139.117 424.38 138.548 426.971 137.92 429.157 137.231 431.343 136.542 433.155 135.913 434.593 135.344 436.03 134.775 437.198 134.491 438.096 134.491 438.635 134.491 439.085 134.595 439.444 134.805 439.803 135.015 440.103 135.389 440.343 135.928 440.582 136.467 440.747 137.231 440.837 138.219 440.927 139.207 440.971 140.45 440.971 141.948 440.971 143.265 440.941 144.388 440.882 145.317 440.822 146.245 440.732 147.039 440.612 147.698 440.492 148.356 440.313 148.91 440.073 149.36 439.833 149.809 439.519 150.243 439.13 150.662 438.74 151.082 437.677 151.651 435.94 152.369 434.203 153.088 431.987 153.792 429.292 154.481 426.596 155.17 423.512 155.769 420.038 156.278 416.564 156.787 412.85 157.041 408.897 157.041 401.77 157.041 395.525 156.143 390.165 154.346 384.804 152.549 380.327 149.824 376.733 146.17 373.139 142.517 370.459 137.905 368.692 132.334 366.925 126.764 366.042 120.235 366.042 112.748 366.042 105.621 366.97 99.1969 368.827 93.4769 370.684 87.7568 373.379 82.9052 376.913 78.9222 380.447 74.9391 384.744 71.8994 389.805 69.803 394.867 67.7067 400.572 66.6585 406.921 66.6585ZM264.882 66.6585C270.332 66.6585 274.929 67.5569 278.673 69.3538 282.416 71.1507 285.441 73.5914 287.747 76.6761 290.053 79.7607 291.715 83.3694 292.733 87.5023 293.751 91.6351 294.26 96.6064 294.26 102.416L294.26 151.92C294.26 152.519 294.081 153.043 293.721 153.492 293.362 153.942 292.763 154.316 291.925 154.616 291.086 154.915 289.933 155.14 288.466 155.289 286.998 155.439 285.186 155.514 283.03 155.514 280.814 155.514 278.972 155.439 277.505 155.289 276.037 155.14 274.884 154.915 274.046 154.616 273.207 154.316 272.608 153.942 272.249 153.492 271.889 153.043 271.71 152.519 271.71 151.92L271.71 106.19C271.71 102.297 271.425 99.2418 270.856 97.0257 270.287 94.8095 269.464 92.9079 268.385 91.3206 267.307 89.7334 265.915 88.5055 264.208 87.637 262.501 86.7685 260.509 86.3343 258.233 86.3343 255.358 86.3343 252.453 87.3825 249.518 89.4788 246.583 91.5752 243.529 94.6299 240.354 98.6429L240.354 151.92C240.354 152.519 240.175 153.043 239.815 153.492 239.456 153.942 238.842 154.316 237.973 154.616 237.105 154.915 235.952 155.14 234.514 155.289 233.077 155.439 231.25 155.514 229.034 155.514 226.818 155.514 224.991 155.439 223.553 155.289 222.116 155.14 220.963 154.915 220.094 154.616 219.226 154.316 218.612 153.942 218.253 153.492 217.893 153.043 217.714 152.519 217.714 151.92L217.714 71.7796C217.714 71.1806 217.863 70.6566 218.163 70.2073 218.462 69.7581 219.001 69.3838 219.78 69.0843 220.559 68.7848 221.562 68.5602 222.79 68.4105 224.018 68.2607 225.56 68.1859 227.417 68.1859 229.333 68.1859 230.921 68.2607 232.178 68.4105 233.436 68.5602 234.41 68.7848 235.098 69.0843 235.787 69.3838 236.281 69.7581 236.581 70.2073 236.88 70.6566 237.03 71.1806 237.03 71.7796L237.03 81.0335C241.462 76.2418 245.969 72.6481 250.551 70.2523 255.134 67.8564 259.91 66.6585 264.882 66.6585ZM157.796 66.6585C164.983 66.6585 171.212 67.6318 176.483 69.5784 181.754 71.525 186.111 74.3851 189.555 78.1585 192.999 81.9319 195.56 86.5739 197.237 92.0843 198.914 97.5947 199.753 103.914 199.753 111.041 199.753 117.869 198.854 124.099 197.057 129.729 195.26 135.359 192.535 140.211 188.882 144.284 185.228 148.356 180.646 151.501 175.135 153.717 169.625 155.933 163.186 157.041 155.819 157.041 148.691 157.041 142.492 156.053 137.221 154.076 131.951 152.1 127.578 149.225 124.104 145.451 120.63 141.678 118.055 137.036 116.378 131.526 114.701 126.015 113.862 119.726 113.862 112.659 113.862 105.83 114.775 99.5862 116.602 93.9261 118.429 88.2659 121.169 83.4144 124.823 79.3714 128.477 75.3284 133.044 72.1989 138.524 69.9827 144.005 67.7666 150.428 66.6585 157.796 66.6585ZM71.3972 36.8304C74.6316 36.8304 77.7462 37.0999 80.741 37.639 83.7357 38.178 86.5059 38.8818 89.0515 39.7503 91.5971 40.6188 93.8881 41.6221 95.9245 42.7601 97.961 43.8981 99.3835 44.8714 100.192 45.68 101.001 46.4886 101.555 47.1624 101.854 47.7015 102.154 48.2405 102.393 48.9293 102.573 49.7679 102.753 50.6064 102.887 51.5947 102.977 52.7327 103.067 53.8707 103.112 55.2783 103.112 56.9554 103.112 58.7523 103.052 60.2796 102.932 61.5374 102.813 62.7952 102.603 63.8134 102.303 64.5921 102.004 65.3707 101.645 65.9398 101.225 66.2991 100.806 66.6585 100.327 66.8382 99.7878 66.8382 98.8894 66.8382 97.7514 66.3141 96.3738 65.2659 94.9962 64.2177 93.2143 63.0498 91.028 61.762 88.8419 60.4743 86.2364 59.3063 83.2117 58.2581 80.1869 57.2099 76.5782 56.6858 72.3855 56.6858 67.7735 56.6858 63.6557 57.6292 60.032 59.5159 56.4083 61.4026 53.3236 64.098 50.7781 67.6019 48.2325 71.1058 46.3008 75.3434 44.9831 80.3148 43.6654 85.2861 43.0066 90.8864 43.0066 97.1155 43.0066 103.944 43.7104 109.858 45.1179 114.86 46.5255 119.861 48.532 123.979 51.1374 127.213 53.7429 130.448 56.8874 132.858 60.571 134.446 64.2546 136.033 68.4024 136.826 73.0144 136.826 77.2071 136.826 80.8308 136.332 83.8855 135.344 86.9402 134.356 89.5606 133.263 91.7468 132.065 93.933 130.867 95.7299 129.789 97.1374 128.83 98.545 127.872 99.6381 127.393 100.417 127.393 101.016 127.393 101.495 127.513 101.854 127.752 102.214 127.992 102.513 128.471 102.753 129.19 102.992 129.909 103.172 130.912 103.292 132.2 103.412 133.487 103.471 135.209 103.471 137.366 103.471 138.863 103.426 140.136 103.337 141.184 103.247 142.232 103.112 143.131 102.932 143.879 102.753 144.628 102.513 145.272 102.214 145.811 101.914 146.35 101.435 146.964 100.776 147.653 100.117 148.341 98.8445 149.225 96.9577 150.303 95.071 151.381 92.765 152.414 90.0398 153.403 87.3145 154.391 84.1999 155.214 80.696 155.873 77.1921 156.532 73.4037 156.862 69.3308 156.862 61.3646 156.862 54.1772 155.634 47.7683 153.178 41.3594 150.722 35.9089 147.054 31.4167 142.172 26.9245 137.291 23.4805 131.196 21.0847 123.889 18.6889 116.582 17.491 108.076 17.491 98.3733 17.491 88.4905 18.8087 79.7158 21.4441 72.0491 24.0795 64.3825 27.7631 57.9437 32.4949 52.7327 37.2266 47.5218 42.9018 43.5687 49.5203 40.8734 56.1387 38.178 63.431 36.8304 71.3972 36.8304ZM348.237 29.1937C350.573 29.1937 352.789 29.3883 354.885 29.7776 356.982 30.167 358.629 30.5862 359.827 31.0355 361.025 31.4847 361.833 31.9039 362.253 32.2933 362.672 32.6826 363.016 33.2516 363.286 34.0003 363.555 34.749 363.75 35.7073 363.87 36.8753 363.99 38.0433 364.05 39.4957 364.05 41.2327 364.05 42.9697 363.99 44.3623 363.87 45.4105 363.75 46.4586 363.57 47.2672 363.331 47.8362 363.091 48.4053 362.822 48.7946 362.522 49.0042 362.223 49.2138 361.893 49.3187 361.534 49.3187 361.115 49.3187 360.65 49.2138 360.141 49.0042 359.632 48.7946 359.003 48.57 358.255 48.3304 357.506 48.0908 356.622 47.8662 355.604 47.6566 354.586 47.4469 353.388 47.3421 352.01 47.3421 350.393 47.3421 349.001 47.5967 347.833 48.1058 346.665 48.6149 345.691 49.4235 344.913 50.5316 344.134 51.6396 343.565 53.0771 343.206 54.8441 342.846 56.611 342.667 58.7822 342.667 61.3577L342.667 68.7249 357.311 68.7249C357.85 68.7249 358.344 68.8746 358.794 69.1741 359.243 69.4736 359.617 69.9677 359.917 70.6566 360.216 71.3454 360.441 72.2887 360.591 73.4866 360.74 74.6845 360.815 76.152 360.815 77.889 360.815 81.1832 360.516 83.5341 359.917 84.9417 359.318 86.3493 358.449 87.053 357.311 87.053L342.667 87.053 342.667 151.92C342.667 152.519 342.487 153.043 342.128 153.492 341.768 153.942 341.169 154.316 340.331 154.616 339.492 154.915 338.324 155.14 336.827 155.289 335.329 155.439 333.503 155.514 331.346 155.514 329.19 155.514 327.378 155.439 325.911 155.289 324.443 155.14 323.275 154.915 322.407 154.616 321.538 154.316 320.939 153.942 320.61 153.492 320.281 153.043 320.116 152.519 320.116 151.92L320.116 87.053 310.053 87.053C308.915 87.053 308.062 86.3493 307.493 84.9417 306.924 83.5341 306.639 81.1832 306.639 77.889 306.639 76.152 306.714 74.6845 306.864 73.4866 307.014 72.2887 307.223 71.3454 307.493 70.6566 307.762 69.9677 308.122 69.4736 308.571 69.1741 309.02 68.8746 309.544 68.7249 310.143 68.7249L320.116 68.7249 320.116 61.9866C320.116 56.5361 320.655 51.7594 321.733 47.6566 322.811 43.5537 324.503 40.1396 326.809 37.4144 329.115 34.6891 332.05 32.6377 335.614 31.2601 339.178 29.8825 343.385 29.1937 348.237 29.1937Z" stroke="#FFC000" stroke-linejoin="round" stroke-miterlimit="10" fill="url(#fill1)" fill-rule="evenodd"/><text fill="#000000" fill-opacity="0" font-family="Arial,Arial_MSFontService,sans-serif" font-size="127.848" x="17.491" y="141.06">Conferences</text></g></svg>