<svg width="960" height="189" xmlns="http://www.w3.org/2000/svg" xmlns:xlink="http://www.w3.org/1999/xlink" overflow="hidden"><defs><clipPath id="clip0"><rect x="0" y="0" width="960" height="189"/></clipPath><linearGradient x1="480" y1="-17.0251" x2="480" y2="203.775" gradientUnits="userSpaceOnUse" spreadMethod="reflect" id="fill1"><stop offset="0" stop-color="#FFC000"/><stop offset="0.04" stop-color="#FFD966"/><stop offset="0.87" stop-color="#FFF2CC"/><stop offset="1" stop-color="#FFF2CC"/></linearGradient></defs><g clip-path="url(#clip0)"><rect x="0" y="0" width="960" height="189" fill="#FFFFFF" fill-opacity="0"/><path d="M736.702 85.9749C735.204 85.9749 733.722 86.1995 732.254 86.6487 730.787 87.098 729.289 87.8317 727.762 88.8499 726.235 89.8681 724.662 91.1859 723.045 92.803 721.428 94.4202 719.721 96.4267 717.924 98.8226L717.924 125.237C721.099 129.25 724.123 132.349 726.998 134.535 729.873 136.722 732.868 137.815 735.983 137.815 738.918 137.815 741.418 137.066 743.485 135.569 745.551 134.071 747.243 132.11 748.561 129.684 749.879 127.258 750.852 124.518 751.481 121.463 752.11 118.409 752.424 115.354 752.424 112.299 752.424 108.885 752.17 105.606 751.661 102.461 751.151 99.3167 750.283 96.5166 749.055 94.0609 747.827 91.6051 746.21 89.6435 744.204 88.1761 742.197 86.7086 739.696 85.9749 736.702 85.9749ZM477.952 82.6507C475.077 82.6507 472.576 83.1898 470.45 84.2679 468.323 85.346 466.556 86.7985 465.149 88.6253 463.741 90.4521 462.663 92.6084 461.914 95.0941 461.166 97.5797 460.732 100.23 460.612 103.045L494.393 103.045C494.573 96.6963 493.3 91.7099 490.575 88.0862 487.849 84.4625 483.642 82.6507 477.952 82.6507ZM384.952 82.6507C382.077 82.6507 379.576 83.1898 377.45 84.2679 375.323 85.346 373.556 86.7985 372.149 88.6253 370.741 90.4521 369.663 92.6084 368.914 95.0941 368.166 97.5797 367.732 100.23 367.612 103.045L401.393 103.045C401.573 96.6963 400.3 91.7099 397.575 88.0862 394.849 84.4625 390.642 82.6507 384.952 82.6507ZM608.065 68.1859C610.281 68.1859 612.108 68.2607 613.545 68.4105 614.983 68.5602 616.136 68.7848 617.004 69.0843 617.873 69.3838 618.487 69.7581 618.846 70.2073 619.206 70.6566 619.385 71.1806 619.385 71.7796L619.385 117.061C619.385 121.254 619.655 124.458 620.194 126.674 620.733 128.89 621.556 130.792 622.664 132.379 623.773 133.966 625.18 135.194 626.887 136.063 628.594 136.931 630.586 137.366 632.862 137.366 635.737 137.366 638.627 136.317 641.532 134.221 644.437 132.125 647.536 129.07 650.831 125.057L650.831 71.7796C650.831 71.1806 650.995 70.6566 651.325 70.2073 651.654 69.7581 652.253 69.3838 653.122 69.0843 653.99 68.7848 655.143 68.5602 656.58 68.4105 658.018 68.2607 659.845 68.1859 662.061 68.1859 664.277 68.1859 666.104 68.2607 667.541 68.4105 668.979 68.5602 670.117 68.7848 670.955 69.0843 671.794 69.3838 672.393 69.7581 672.752 70.2073 673.112 70.6566 673.291 71.1806 673.291 71.7796L673.291 151.92C673.291 152.519 673.142 153.043 672.842 153.492 672.543 153.942 672.019 154.316 671.27 154.616 670.521 154.915 669.533 155.14 668.305 155.289 667.077 155.439 665.535 155.514 663.678 155.514 661.702 155.514 660.099 155.439 658.871 155.289 657.644 155.14 656.67 154.915 655.952 154.616 655.233 154.316 654.724 153.942 654.424 153.492 654.125 153.043 653.975 152.519 653.975 151.92L653.975 142.666C649.543 147.458 645.036 151.052 640.454 153.448 635.871 155.843 631.125 157.041 626.213 157.041 620.703 157.041 616.076 156.143 612.332 154.346 608.589 152.549 605.564 150.093 603.258 146.979 600.952 143.864 599.305 140.256 598.317 136.153 597.329 132.05 596.834 126.944 596.834 120.834L596.834 71.7796C596.834 71.1806 596.999 70.6566 597.329 70.2073 597.658 69.7581 598.257 69.3838 599.125 69.0843 599.994 68.7848 601.162 68.5602 602.629 68.4105 604.097 68.2607 605.909 68.1859 608.065 68.1859ZM743.35 66.6585C749.22 66.6585 754.221 67.8115 758.354 70.1175 762.487 72.4235 765.856 75.583 768.461 79.596 771.067 83.609 772.969 88.2809 774.166 93.6116 775.364 98.9424 775.963 104.632 775.963 110.682 775.963 117.81 775.2 124.233 773.672 129.953 772.145 135.673 769.914 140.54 766.979 144.553 764.044 148.566 760.39 151.651 756.018 153.807 751.646 155.963 746.644 157.041 741.014 157.041 738.678 157.041 736.537 156.817 734.59 156.367 732.644 155.918 730.757 155.229 728.93 154.301 727.103 153.373 725.291 152.22 723.495 150.842 721.698 149.464 719.841 147.847 717.924 145.991L717.924 183.725C717.924 184.324 717.745 184.863 717.385 185.342 717.026 185.821 716.412 186.226 715.543 186.555 714.675 186.884 713.522 187.139 712.084 187.319 710.647 187.498 708.82 187.588 706.604 187.588 704.388 187.588 702.561 187.498 701.123 187.319 699.686 187.139 698.533 186.884 697.664 186.555 696.796 186.226 696.182 185.821 695.823 185.342 695.463 184.863 695.284 184.324 695.284 183.725L695.284 71.7796C695.284 71.1806 695.433 70.6566 695.733 70.2073 696.032 69.7581 696.556 69.3838 697.305 69.0843 698.054 68.7848 699.042 68.5602 700.27 68.4105 701.498 68.2607 703.04 68.1859 704.897 68.1859 706.694 68.1859 708.206 68.2607 709.434 68.4105 710.662 68.5602 711.65 68.7848 712.399 69.0843 713.148 69.3838 713.672 69.7581 713.971 70.2073 714.271 70.6566 714.42 71.1806 714.42 71.7796L714.42 81.2132C716.756 78.8174 719.047 76.706 721.293 74.8792 723.539 73.0524 725.831 71.525 728.166 70.2972 730.502 69.0693 732.913 68.1559 735.399 67.5569 737.885 66.958 740.535 66.6585 743.35 66.6585ZM478.491 66.6585C485.199 66.6585 490.934 67.6468 495.696 69.6234 500.457 71.5999 504.366 74.3401 507.42 77.8441 510.475 81.348 512.721 85.4957 514.159 90.2874 515.596 95.0791 516.315 100.29 516.315 105.92L516.315 109.514C516.315 112.269 515.701 114.306 514.473 115.623 513.245 116.941 511.553 117.6 509.397 117.6L460.612 117.6C460.612 121.014 461.016 124.114 461.825 126.899 462.633 129.684 463.921 132.05 465.688 133.996 467.455 135.943 469.731 137.425 472.516 138.444 475.301 139.462 478.64 139.971 482.534 139.971 486.487 139.971 489.961 139.686 492.955 139.117 495.95 138.548 498.541 137.92 500.727 137.231 502.913 136.542 504.725 135.913 506.163 135.344 507.6 134.775 508.768 134.491 509.666 134.491 510.206 134.491 510.655 134.595 511.014 134.805 511.373 135.015 511.673 135.389 511.913 135.928 512.152 136.467 512.317 137.231 512.407 138.219 512.497 139.207 512.541 140.45 512.541 141.948 512.541 143.265 512.511 144.388 512.452 145.317 512.392 146.245 512.302 147.039 512.182 147.698 512.062 148.356 511.883 148.91 511.643 149.36 511.403 149.809 511.089 150.243 510.7 150.662 510.31 151.082 509.247 151.651 507.51 152.369 505.773 153.088 503.557 153.792 500.862 154.481 498.166 155.17 495.082 155.769 491.608 156.278 488.134 156.787 484.42 157.041 480.467 157.041 473.34 157.041 467.095 156.143 461.735 154.346 456.374 152.549 451.897 149.824 448.303 146.17 444.709 142.517 442.029 137.905 440.262 132.334 438.495 126.764 437.612 120.235 437.612 112.748 437.612 105.621 438.54 99.1969 440.397 93.4769 442.254 87.7568 444.949 82.9052 448.483 78.9222 452.017 74.9391 456.314 71.8994 461.375 69.803 466.437 67.7067 472.142 66.6585 478.491 66.6585ZM385.491 66.6585C392.199 66.6585 397.934 67.6468 402.696 69.6234 407.457 71.5999 411.366 74.3401 414.42 77.8441 417.475 81.348 419.721 85.4957 421.159 90.2874 422.596 95.0791 423.315 100.29 423.315 105.92L423.315 109.514C423.315 112.269 422.701 114.306 421.473 115.623 420.245 116.941 418.553 117.6 416.397 117.6L367.612 117.6C367.612 121.014 368.016 124.114 368.825 126.899 369.633 129.684 370.921 132.05 372.688 133.996 374.455 135.943 376.731 137.425 379.516 138.444 382.301 139.462 385.64 139.971 389.534 139.971 393.487 139.971 396.961 139.686 399.956 139.117 402.95 138.548 405.541 137.92 407.727 137.231 409.913 136.542 411.725 135.913 413.163 135.344 414.6 134.775 415.768 134.491 416.666 134.491 417.205 134.491 417.655 134.595 418.014 134.805 418.373 135.015 418.673 135.389 418.913 135.928 419.152 136.467 419.317 137.231 419.407 138.219 419.496 139.207 419.541 140.45 419.541 141.948 419.541 143.265 419.511 144.388 419.452 145.317 419.392 146.245 419.302 147.039 419.182 147.698 419.062 148.356 418.883 148.91 418.643 149.36 418.403 149.809 418.089 150.243 417.7 150.662 417.31 151.082 416.247 151.651 414.51 152.369 412.773 153.088 410.557 153.792 407.862 154.481 405.166 155.17 402.082 155.769 398.608 156.278 395.134 156.787 391.42 157.041 387.467 157.041 380.34 157.041 374.095 156.143 368.735 154.346 363.374 152.549 358.897 149.824 355.303 146.17 351.709 142.517 349.029 137.905 347.262 132.334 345.495 126.764 344.612 120.235 344.612 112.748 344.612 105.621 345.54 99.1969 347.397 93.4769 349.254 87.7568 351.949 82.9052 355.483 78.9222 359.017 74.9391 363.314 71.8994 368.375 69.803 373.437 67.7067 379.142 66.6585 385.491 66.6585ZM548.377 47.0726C550.593 47.0726 552.435 47.1474 553.903 47.2972 555.37 47.4469 556.523 47.6865 557.362 48.0159 558.2 48.3453 558.799 48.7496 559.159 49.2288 559.518 49.708 559.698 50.2471 559.698 50.846L559.698 68.7249 577.127 68.7249C577.726 68.7249 578.25 68.8746 578.7 69.1741 579.149 69.4736 579.523 69.9677 579.823 70.6566 580.122 71.3454 580.347 72.2887 580.497 73.4866 580.646 74.6845 580.721 76.152 580.721 77.889 580.721 81.1832 580.422 83.5341 579.823 84.9417 579.224 86.3493 578.355 87.053 577.217 87.053L559.698 87.053 559.698 124.698C559.698 129.07 560.386 132.349 561.764 134.535 563.142 136.722 565.597 137.815 569.131 137.815 570.329 137.815 571.407 137.71 572.366 137.5 573.324 137.291 574.177 137.051 574.926 136.782 575.675 136.512 576.304 136.272 576.813 136.063 577.322 135.853 577.786 135.748 578.206 135.748 578.565 135.748 578.909 135.853 579.239 136.063 579.568 136.272 579.823 136.692 580.002 137.321 580.182 137.95 580.347 138.803 580.497 139.881 580.646 140.959 580.721 142.337 580.721 144.014 580.721 146.649 580.556 148.671 580.227 150.078 579.898 151.486 579.463 152.474 578.924 153.043 578.385 153.612 577.592 154.121 576.543 154.571 575.495 155.02 574.267 155.409 572.86 155.739 571.452 156.068 569.925 156.323 568.278 156.502 566.631 156.682 564.969 156.772 563.291 156.772 558.799 156.772 554.906 156.203 551.612 155.065 548.317 153.927 545.592 152.175 543.436 149.809 541.28 147.443 539.693 144.463 538.674 140.869 537.656 137.276 537.147 133.023 537.147 128.112L537.147 87.053 527.534 87.053C526.396 87.053 525.527 86.3493 524.928 84.9417 524.329 83.5341 524.03 81.1832 524.03 77.889 524.03 76.152 524.105 74.6845 524.254 73.4866 524.404 72.2887 524.629 71.3454 524.928 70.6566 525.228 69.9677 525.602 69.4736 526.051 69.1741 526.5 68.8746 527.024 68.7249 527.623 68.7249L537.147 68.7249 537.147 50.846C537.147 50.2471 537.312 49.708 537.641 49.2288 537.97 48.7496 538.569 48.3453 539.438 48.0159 540.306 47.6865 541.474 47.4469 542.942 47.2972 544.409 47.1474 546.221 47.0726 548.377 47.0726ZM198.526 38.7171 213.979 38.7171C216.734 38.7171 219.1 38.9417 221.077 39.3909 223.053 39.8401 224.76 40.5888 226.198 41.637 227.635 42.6852 228.833 44.0628 229.791 45.7698 230.75 47.4769 231.588 49.5882 232.307 52.1038L257.463 121.373 257.823 121.373 283.877 52.2835C284.656 49.7679 285.51 47.6416 286.438 45.9046 287.366 44.1676 288.444 42.7601 289.672 41.6819 290.9 40.6038 292.353 39.8401 294.03 39.3909 295.707 38.9417 297.653 38.7171 299.87 38.7171L315.772 38.7171C317.389 38.7171 318.782 38.9267 319.95 39.346 321.118 39.7653 322.076 40.3792 322.825 41.1878 323.573 41.9964 324.142 42.9847 324.532 44.1526 324.921 45.3206 325.116 46.6533 325.116 48.1507L325.116 151.741C325.116 152.339 324.951 152.879 324.622 153.358 324.292 153.837 323.693 154.226 322.825 154.526 321.956 154.825 320.803 155.065 319.366 155.244 317.928 155.424 316.101 155.514 313.885 155.514 311.729 155.514 309.932 155.424 308.495 155.244 307.057 155.065 305.919 154.825 305.08 154.526 304.242 154.226 303.643 153.837 303.284 153.358 302.924 152.879 302.745 152.339 302.745 151.741L302.745 57.1351 302.565 57.1351 268.873 151.651C268.634 152.429 268.245 153.073 267.706 153.582 267.166 154.091 266.433 154.496 265.504 154.795 264.576 155.095 263.393 155.289 261.956 155.379 260.518 155.469 258.781 155.514 256.745 155.514 254.708 155.514 252.971 155.439 251.534 155.289 250.096 155.14 248.913 154.9 247.985 154.571 247.056 154.241 246.323 153.837 245.784 153.358 245.245 152.879 244.885 152.31 244.706 151.651L212.182 57.1351 212.002 57.1351 212.002 151.741C212.002 152.339 211.838 152.879 211.508 153.358 211.179 153.837 210.565 154.226 209.666 154.526 208.768 154.825 207.615 155.065 206.207 155.244 204.8 155.424 202.988 155.514 200.772 155.514 198.616 155.514 196.819 155.424 195.381 155.244 193.944 155.065 192.791 154.825 191.922 154.526 191.054 154.226 190.455 153.837 190.125 153.358 189.796 152.879 189.631 152.339 189.631 151.741L189.631 48.1507C189.631 45.096 190.44 42.7601 192.057 41.1429 193.674 39.5257 195.83 38.7171 198.526 38.7171Z" stroke="#FFC000" stroke-linejoin="round" stroke-miterlimit="10" fill="url(#fill1)" fill-rule="evenodd"/><text fill="#000000" fill-opacity="0" font-family="Arial,Arial_MSFontService,sans-serif" font-size="148.871" x="189.631" y="168.979">Meetup</text></g></svg>