<svg width="960" height="189" xmlns="http://www.w3.org/2000/svg" xmlns:xlink="http://www.w3.org/1999/xlink" overflow="hidden"><defs><clipPath id="clip0"><rect x="0" y="0" width="960" height="189"/></clipPath><linearGradient x1="480" y1="-17.0251" x2="480" y2="203.775" gradientUnits="userSpaceOnUse" spreadMethod="reflect" id="fill1"><stop offset="0" stop-color="#FFC000"/><stop offset="0.04" stop-color="#FFD966"/><stop offset="0.87" stop-color="#FFF2CC"/><stop offset="1" stop-color="#FFF2CC"/></linearGradient></defs><g clip-path="url(#clip0)"><rect x="0" y="0" width="960" height="189" fill="#FFFFFF" fill-opacity="0"/><path d="M563.842 117.869C560.188 117.869 557.074 118.139 554.498 118.678 551.923 119.217 549.826 120.026 548.209 121.104 546.592 122.182 545.409 123.485 544.66 125.012 543.911 126.539 543.537 128.291 543.537 130.268 543.537 133.622 544.6 136.257 546.727 138.174 548.853 140.091 551.803 141.049 555.576 141.049 558.751 141.049 561.671 140.241 564.336 138.623 567.001 137.006 569.712 134.64 572.467 131.526L572.467 117.869ZM386.326 85.7952C383.391 85.7952 380.861 86.5289 378.734 87.9964 376.608 89.4638 374.901 91.4254 373.613 93.8812 372.326 96.3369 371.367 99.0771 370.738 102.102 370.109 105.127 369.795 108.226 369.795 111.401 369.795 114.755 370.064 118.019 370.604 121.194 371.143 124.368 372.026 127.198 373.254 129.684 374.482 132.17 376.114 134.161 378.15 135.659 380.187 137.156 382.762 137.905 385.877 137.905 387.434 137.905 388.947 137.68 390.414 137.231 391.882 136.782 393.379 136.048 394.906 135.03 396.434 134.011 398.006 132.679 399.623 131.032 401.24 129.384 403.007 127.363 404.924 124.967L404.924 98.3733C401.689 94.3004 398.59 91.1859 395.625 89.0296 392.66 86.8734 389.561 85.7952 386.326 85.7952ZM290.65 84.5374C287.296 84.5374 284.361 85.1513 281.846 86.3792 279.33 87.6071 277.264 89.4039 275.647 91.7698 274.029 94.1357 272.816 96.9808 272.008 100.305 271.199 103.629 270.795 107.418 270.795 111.67 270.795 115.623 271.124 119.262 271.783 122.586 272.442 125.91 273.505 128.8 274.973 131.256 276.44 133.712 278.432 135.614 280.947 136.961 283.463 138.309 286.577 138.983 290.291 138.983 293.705 138.983 296.67 138.369 299.186 137.141 301.701 135.913 303.768 134.131 305.385 131.795 307.002 129.459 308.2 126.629 308.979 123.305 309.757 119.981 310.146 116.192 310.146 111.94 310.146 107.987 309.832 104.348 309.203 101.024 308.574 97.6995 307.511 94.8095 306.014 92.3538 304.516 89.8981 302.525 87.9814 300.039 86.6038 297.553 85.2262 294.424 84.5374 290.65 84.5374ZM485.865 66.7484C488.261 66.7484 490.612 66.958 492.918 67.3773 495.224 67.7965 497.38 68.3655 499.387 69.0843 501.393 69.803 503.19 70.6116 504.777 71.5101 506.365 72.4085 507.488 73.1871 508.146 73.846 508.805 74.5049 509.27 75.0589 509.539 75.5081 509.809 75.9573 510.018 76.5413 510.168 77.2601 510.318 77.9788 510.437 78.8623 510.527 79.9105 510.617 80.9586 510.662 82.2314 510.662 83.7288 510.662 87.2028 510.363 89.6435 509.764 91.0511 509.165 92.4586 508.386 93.1624 507.428 93.1624 506.409 93.1624 505.331 92.7431 504.193 91.9046 503.055 91.0661 501.708 90.1377 500.15 89.1194 498.593 88.1012 496.736 87.1728 494.58 86.3343 492.424 85.4957 489.848 85.0765 486.854 85.0765 480.984 85.0765 476.492 87.3375 473.377 91.8597 470.262 96.3818 468.705 103.015 468.705 111.76 468.705 116.073 469.094 119.876 469.873 123.17 470.652 126.464 471.805 129.22 473.332 131.436 474.859 133.652 476.776 135.314 479.082 136.422 481.388 137.53 484.068 138.084 487.123 138.084 490.238 138.084 492.918 137.62 495.164 136.692 497.41 135.763 499.372 134.73 501.049 133.592 502.726 132.454 504.133 131.421 505.271 130.492 506.409 129.564 507.368 129.1 508.146 129.1 508.686 129.1 509.135 129.25 509.494 129.549 509.854 129.849 510.138 130.403 510.348 131.211 510.557 132.02 510.722 133.053 510.842 134.311 510.962 135.569 511.021 137.186 511.021 139.162 511.021 140.72 510.977 142.022 510.887 143.071 510.797 144.119 510.677 145.002 510.527 145.721 510.378 146.44 510.198 147.024 509.988 147.473 509.779 147.922 509.314 148.491 508.596 149.18 507.877 149.869 506.649 150.707 504.912 151.696 503.175 152.684 501.199 153.567 498.982 154.346 496.766 155.125 494.355 155.754 491.75 156.233 489.145 156.712 486.464 156.951 483.709 156.951 477.54 156.951 472.074 155.993 467.312 154.076 462.551 152.16 458.553 149.33 455.318 145.586 452.084 141.843 449.643 137.276 447.996 131.885 446.349 126.494 445.525 120.325 445.525 113.377 445.525 105.351 446.529 98.4183 448.535 92.5784 450.542 86.7386 453.342 81.902 456.936 78.0687 460.529 74.2353 464.782 71.3903 469.693 69.5335 474.605 67.6767 479.995 66.7484 485.865 66.7484ZM780.678 66.6585C783.193 66.6585 785.634 66.8382 788 67.1976 790.366 67.5569 792.507 68.0062 794.424 68.5452 796.34 69.0843 797.958 69.6683 799.275 70.2972 800.593 70.9261 801.536 71.4651 802.105 71.9144 802.674 72.3636 803.079 72.8128 803.318 73.262 803.558 73.7112 803.738 74.2503 803.857 74.8792 803.977 75.5081 804.082 76.2868 804.172 77.2151 804.262 78.1435 804.307 79.2965 804.307 80.6741 804.307 82.2913 804.262 83.609 804.172 84.6273 804.082 85.6455 803.932 86.4541 803.723 87.053 803.513 87.652 803.228 88.0563 802.869 88.2659 802.51 88.4756 802.09 88.5804 801.611 88.5804 801.072 88.5804 800.234 88.2659 799.096 87.637 797.958 87.0081 796.535 86.3343 794.828 85.6155 793.121 84.8968 791.144 84.223 788.898 83.5941 786.652 82.9651 784.092 82.6507 781.217 82.6507 779.18 82.6507 777.413 82.8603 775.916 83.2796 774.419 83.6989 773.191 84.2978 772.232 85.0765 771.274 85.8551 770.555 86.7685 770.076 87.8167 769.597 88.8649 769.357 89.9879 769.357 91.1859 769.357 93.0426 769.926 94.5999 771.064 95.8577 772.202 97.1155 773.7 98.2236 775.557 99.1819 777.413 100.14 779.525 101.039 781.891 101.877 784.256 102.716 786.652 103.629 789.078 104.617 791.504 105.606 793.9 106.759 796.266 108.076 798.631 109.394 800.743 111.011 802.6 112.928 804.456 114.845 805.954 117.136 807.092 119.801 808.23 122.466 808.799 125.626 808.799 129.28 808.799 133.832 807.945 137.845 806.238 141.319 804.531 144.793 802.12 147.698 799.006 150.034 795.891 152.369 792.208 154.121 787.955 155.289 783.702 156.457 779.09 157.041 774.119 157.041 771.124 157.041 768.264 156.817 765.539 156.367 762.814 155.918 760.373 155.349 758.217 154.66 756.06 153.972 754.264 153.268 752.826 152.549 751.389 151.83 750.34 151.157 749.682 150.528 749.023 149.899 748.514 148.91 748.154 147.563 747.795 146.215 747.615 144.224 747.615 141.588 747.615 139.851 747.675 138.459 747.795 137.41 747.915 136.362 748.094 135.524 748.334 134.895 748.574 134.266 748.873 133.847 749.232 133.637 749.592 133.427 750.041 133.323 750.58 133.323 751.239 133.323 752.212 133.697 753.5 134.446 754.788 135.194 756.39 136.018 758.307 136.916 760.223 137.815 762.454 138.653 765 139.432 767.545 140.211 770.435 140.6 773.67 140.6 775.706 140.6 777.518 140.39 779.105 139.971 780.693 139.552 782.07 138.953 783.238 138.174 784.406 137.395 785.29 136.407 785.889 135.209 786.488 134.011 786.787 132.634 786.787 131.076 786.787 129.28 786.233 127.737 785.125 126.45 784.017 125.162 782.549 124.039 780.723 123.08 778.896 122.122 776.829 121.224 774.523 120.385 772.217 119.547 769.852 118.618 767.426 117.6 765 116.582 762.634 115.414 760.328 114.096 758.022 112.778 755.956 111.161 754.129 109.244 752.302 107.328 750.835 105.022 749.727 102.326 748.618 99.6312 748.064 96.3968 748.064 92.6233 748.064 88.79 748.813 85.2711 750.311 82.0667 751.808 78.8623 753.964 76.122 756.779 73.846 759.594 71.57 763.023 69.803 767.066 68.5452 771.109 67.2874 775.646 66.6585 780.678 66.6585ZM644.678 66.6585C647.193 66.6585 649.634 66.8382 652 67.1976 654.366 67.5569 656.507 68.0062 658.424 68.5452 660.341 69.0843 661.958 69.6683 663.275 70.2972 664.593 70.9261 665.536 71.4651 666.105 71.9144 666.674 72.3636 667.079 72.8128 667.318 73.262 667.558 73.7112 667.738 74.2503 667.857 74.8792 667.977 75.5081 668.082 76.2868 668.172 77.2151 668.262 78.1435 668.307 79.2965 668.307 80.6741 668.307 82.2913 668.262 83.609 668.172 84.6273 668.082 85.6455 667.932 86.4541 667.723 87.053 667.513 87.652 667.228 88.0563 666.869 88.2659 666.51 88.4756 666.09 88.5804 665.611 88.5804 665.072 88.5804 664.234 88.2659 663.096 87.637 661.958 87.0081 660.535 86.3343 658.828 85.6155 657.121 84.8968 655.144 84.223 652.898 83.5941 650.652 82.9651 648.092 82.6507 645.217 82.6507 643.18 82.6507 641.413 82.8603 639.916 83.2796 638.419 83.6989 637.191 84.2978 636.232 85.0765 635.274 85.8551 634.555 86.7685 634.076 87.8167 633.597 88.8649 633.357 89.9879 633.357 91.1859 633.357 93.0426 633.926 94.5999 635.064 95.8577 636.202 97.1155 637.7 98.2236 639.557 99.1819 641.413 100.14 643.525 101.039 645.891 101.877 648.257 102.716 650.652 103.629 653.078 104.617 655.504 105.606 657.9 106.759 660.266 108.076 662.632 109.394 664.743 111.011 666.6 112.928 668.456 114.845 669.954 117.136 671.092 119.801 672.23 122.466 672.799 125.626 672.799 129.28 672.799 133.832 671.945 137.845 670.238 141.319 668.531 144.793 666.12 147.698 663.006 150.034 659.891 152.369 656.208 154.121 651.955 155.289 647.702 156.457 643.09 157.041 638.119 157.041 635.124 157.041 632.264 156.817 629.539 156.367 626.814 155.918 624.373 155.349 622.217 154.66 620.06 153.972 618.264 153.268 616.826 152.549 615.389 151.83 614.341 151.157 613.682 150.528 613.023 149.899 612.514 148.91 612.154 147.563 611.795 146.215 611.615 144.224 611.615 141.588 611.615 139.851 611.675 138.459 611.795 137.41 611.915 136.362 612.094 135.524 612.334 134.895 612.574 134.266 612.873 133.847 613.232 133.637 613.592 133.427 614.041 133.323 614.58 133.323 615.239 133.323 616.212 133.697 617.5 134.446 618.788 135.194 620.39 136.018 622.307 136.916 624.223 137.815 626.454 138.653 629 139.432 631.546 140.211 634.436 140.6 637.67 140.6 639.706 140.6 641.518 140.39 643.105 139.971 644.693 139.552 646.07 138.953 647.238 138.174 648.406 137.395 649.29 136.407 649.889 135.209 650.488 134.011 650.787 132.634 650.787 131.076 650.787 129.28 650.233 127.737 649.125 126.45 648.017 125.162 646.549 124.039 644.723 123.08 642.896 122.122 640.829 121.224 638.523 120.385 636.217 119.547 633.852 118.618 631.426 117.6 629 116.582 626.634 115.414 624.328 114.096 622.022 112.778 619.956 111.161 618.129 109.244 616.302 107.328 614.835 105.022 613.727 102.326 612.618 99.6312 612.064 96.3968 612.064 92.6233 612.064 88.79 612.813 85.2711 614.311 82.0667 615.808 78.8623 617.964 76.122 620.779 73.846 623.594 71.57 627.023 69.803 631.066 68.5452 635.109 67.2874 639.646 66.6585 644.678 66.6585ZM559.26 66.6585C565.549 66.6585 570.924 67.2724 575.387 68.5003 579.849 69.7282 583.518 71.6149 586.393 74.1605 589.268 76.706 591.364 79.9853 592.682 83.9984 593.999 88.0114 594.658 92.7731 594.658 98.2835L594.658 152.19C594.658 153.028 594.359 153.687 593.76 154.166 593.161 154.645 592.217 154.99 590.93 155.2 589.642 155.409 587.74 155.514 585.225 155.514 582.529 155.514 580.568 155.409 579.34 155.2 578.112 154.99 577.243 154.645 576.734 154.166 576.225 153.687 575.971 153.028 575.971 152.19L575.971 145.811C572.676 149.345 568.918 152.1 564.695 154.076 560.473 156.053 555.786 157.041 550.635 157.041 546.382 157.041 542.474 156.487 538.91 155.379 535.346 154.271 532.262 152.624 529.656 150.438 527.051 148.252 525.029 145.541 523.592 142.307 522.154 139.073 521.436 135.299 521.436 130.987 521.436 126.315 522.349 122.257 524.176 118.813 526.003 115.369 528.728 112.524 532.352 110.278 535.975 108.032 540.482 106.369 545.873 105.291 551.264 104.213 557.523 103.674 564.65 103.674L572.467 103.674 572.467 98.8226C572.467 96.3069 572.212 94.1058 571.703 92.2191 571.194 90.3323 570.355 88.7601 569.188 87.5023 568.02 86.2444 566.462 85.3161 564.516 84.7171 562.569 84.1181 560.158 83.8187 557.283 83.8187 553.51 83.8187 550.141 84.2379 547.176 85.0765 544.211 85.915 541.59 86.8434 539.314 87.8616 537.038 88.8799 535.137 89.8083 533.609 90.6468 532.082 91.4853 530.839 91.9046 529.881 91.9046 529.222 91.9046 528.638 91.695 528.129 91.2757 527.62 90.8564 527.201 90.2575 526.871 89.4788 526.542 88.7002 526.287 87.7418 526.107 86.6038 525.928 85.4658 525.838 84.208 525.838 82.8304 525.838 80.9736 525.988 79.5062 526.287 78.428 526.587 77.3499 527.156 76.3766 527.994 75.5081 528.833 74.6396 530.3 73.6813 532.396 72.6331 534.493 71.5849 536.949 70.6116 539.764 69.7132 542.579 68.8148 545.648 68.081 548.973 67.512 552.297 66.943 555.726 66.6585 559.26 66.6585ZM291.459 66.6585C298.647 66.6585 304.876 67.6318 310.146 69.5784 315.417 71.525 319.775 74.3851 323.219 78.1585 326.663 81.9319 329.223 86.5739 330.9 92.0843 332.577 97.5947 333.416 103.914 333.416 111.041 333.416 117.869 332.518 124.099 330.721 129.729 328.924 135.359 326.199 140.211 322.545 144.284 318.891 148.356 314.309 151.501 308.799 153.717 303.288 155.933 296.85 157.041 289.482 157.041 282.355 157.041 276.156 156.053 270.885 154.076 265.614 152.1 261.242 149.225 257.768 145.451 254.294 141.678 251.718 137.036 250.041 131.526 248.364 126.015 247.525 119.726 247.525 112.659 247.525 105.83 248.439 99.5862 250.266 93.9261 252.092 88.2659 254.833 83.4144 258.486 79.3714 262.14 75.3284 266.707 72.1989 272.188 69.9827 277.668 67.7666 284.092 66.6585 291.459 66.6585ZM182.354 56.9554 182.354 96.3968 192.955 96.3968C196.729 96.3968 199.888 95.8877 202.434 94.8694 204.979 93.8512 207.061 92.4287 208.678 90.6019 210.295 88.775 211.523 86.5888 212.361 84.0433 213.2 81.4977 213.619 78.7275 213.619 75.7327 213.619 71.6598 212.9 68.3056 211.463 65.6702 210.025 63.0348 208.258 61.0882 206.162 59.8304 204.066 58.5726 201.865 57.7789 199.559 57.4495 197.253 57.1201 194.872 56.9554 192.416 56.9554ZM703.471 47.0726C705.687 47.0726 707.529 47.1474 708.996 47.2972 710.464 47.4469 711.617 47.6865 712.455 48.0159 713.294 48.3453 713.893 48.7496 714.252 49.2288 714.611 49.708 714.791 50.2471 714.791 50.846L714.791 68.7249 732.221 68.7249C732.82 68.7249 733.344 68.8746 733.793 69.1741 734.242 69.4736 734.617 69.9677 734.916 70.6566 735.216 71.3454 735.44 72.2887 735.59 73.4866 735.74 74.6845 735.814 76.152 735.814 77.889 735.814 81.1832 735.515 83.5341 734.916 84.9417 734.317 86.3493 733.449 87.053 732.311 87.053L714.791 87.053 714.791 124.698C714.791 129.07 715.48 132.349 716.857 134.535 718.235 136.722 720.691 137.815 724.225 137.815 725.423 137.815 726.501 137.71 727.459 137.5 728.417 137.291 729.271 137.051 730.02 136.782 730.768 136.512 731.397 136.272 731.906 136.063 732.415 135.853 732.88 135.748 733.299 135.748 733.658 135.748 734.003 135.853 734.332 136.063 734.661 136.272 734.916 136.692 735.096 137.321 735.275 137.95 735.44 138.803 735.59 139.881 735.74 140.959 735.814 142.337 735.814 144.014 735.814 146.649 735.65 148.671 735.32 150.078 734.991 151.486 734.557 152.474 734.018 153.043 733.479 153.612 732.685 154.121 731.637 154.571 730.589 155.02 729.361 155.409 727.953 155.739 726.546 156.068 725.018 156.323 723.371 156.502 721.724 156.682 720.062 156.772 718.385 156.772 713.893 156.772 709.999 156.203 706.705 155.065 703.411 153.927 700.686 152.175 698.529 149.809 696.373 147.443 694.786 144.463 693.768 140.869 692.749 137.276 692.24 133.023 692.24 128.112L692.24 87.053 682.627 87.053C681.489 87.053 680.62 86.3493 680.021 84.9417 679.423 83.5341 679.123 81.1832 679.123 77.889 679.123 76.152 679.198 74.6845 679.348 73.4866 679.497 72.2887 679.722 71.3454 680.021 70.6566 680.321 69.9677 680.695 69.4736 681.144 69.1741 681.594 68.8746 682.118 68.7249 682.717 68.7249L692.24 68.7249 692.24 50.846C692.24 50.2471 692.405 49.708 692.734 49.2288 693.064 48.7496 693.663 48.3453 694.531 48.0159 695.4 47.6865 696.568 47.4469 698.035 47.2972 699.503 47.1474 701.314 47.0726 703.471 47.0726ZM166.721 38.7171 194.123 38.7171C196.878 38.7171 199.499 38.8219 201.984 39.0316 204.47 39.2412 207.45 39.6904 210.924 40.3792 214.398 41.068 217.917 42.3408 221.48 44.1976 225.044 46.0543 228.084 48.4053 230.6 51.2503 233.115 54.0953 235.032 57.4196 236.35 61.223 237.667 65.0263 238.326 69.2939 238.326 74.0257 238.326 80.5543 237.308 86.3343 235.271 91.3655 233.235 96.3968 230.27 100.634 226.377 104.078 222.484 107.522 217.707 110.143 212.047 111.94 206.387 113.737 199.723 114.635 192.057 114.635L182.354 114.635 182.354 151.741C182.354 152.339 182.159 152.879 181.77 153.358 181.38 153.837 180.736 154.226 179.838 154.526 178.939 154.825 177.742 155.065 176.244 155.244 174.747 155.424 172.83 155.514 170.494 155.514 168.218 155.514 166.316 155.424 164.789 155.244 163.262 155.065 162.049 154.825 161.15 154.526 160.252 154.226 159.623 153.837 159.264 153.358 158.904 152.879 158.725 152.339 158.725 151.741L158.725 47.1624C158.725 44.3473 159.458 42.236 160.926 40.8284 162.393 39.4209 164.325 38.7171 166.721 38.7171ZM416.154 30.1819C418.37 30.1819 420.197 30.2718 421.635 30.4515 423.072 30.6312 424.21 30.8857 425.049 31.2151 425.887 31.5446 426.486 31.9489 426.846 32.428 427.205 32.9072 427.385 33.4463 427.385 34.0452L427.385 151.92C427.385 152.579 427.235 153.133 426.936 153.582 426.636 154.032 426.127 154.406 425.408 154.705 424.689 155.005 423.716 155.214 422.488 155.334 421.26 155.454 419.748 155.514 417.951 155.514 416.034 155.514 414.477 155.454 413.279 155.334 412.081 155.214 411.108 155.005 410.359 154.705 409.611 154.406 409.072 154.032 408.742 153.582 408.413 153.133 408.248 152.579 408.248 151.92L408.248 143.026C404.115 147.458 399.788 150.902 395.266 153.358 390.743 155.813 385.727 157.041 380.217 157.041 374.107 157.041 368.941 155.858 364.719 153.492 360.496 151.127 357.052 147.937 354.387 143.924 351.721 139.911 349.79 135.224 348.592 129.864 347.394 124.503 346.795 118.858 346.795 112.928 346.795 105.8 347.559 99.3916 349.086 93.7015 350.613 88.0114 352.844 83.1598 355.779 79.1468 358.714 75.1338 362.368 72.0491 366.74 69.8929 371.113 67.7366 376.144 66.6585 381.834 66.6585 386.326 66.6585 390.399 67.5719 394.053 69.3987 397.706 71.2256 401.33 73.9059 404.924 77.4398L404.924 34.0452C404.924 33.4463 405.089 32.9072 405.418 32.428 405.747 31.9489 406.346 31.5446 407.215 31.2151 408.083 30.8857 409.236 30.6312 410.674 30.4515 412.111 30.2718 413.938 30.1819 416.154 30.1819Z" stroke="#FFC000" stroke-linejoin="round" stroke-miterlimit="10" fill="url(#fill1)" fill-rule="evenodd"/><text fill="#000000" fill-opacity="0" font-family="Arial,Arial_MSFontService,sans-serif" font-size="126.859" x="158.725" y="141.184">Podcasts</text></g></svg>